<?xml version="1.0" encoding="UTF-8" standalone="no"?>
<!-- Generator: Adobe Illustrator 14.0.0, SVG Export Plug-In . SVG Version: 6.00 Build 43363)  -->

<svg
   xmlns:dc="http://purl.org/dc/elements/1.1/"
   xmlns:cc="http://creativecommons.org/ns#"
   xmlns:rdf="http://www.w3.org/1999/02/22-rdf-syntax-ns#"
   xmlns:svg="http://www.w3.org/2000/svg"
   xmlns="http://www.w3.org/2000/svg"
   xmlns:sodipodi="http://sodipodi.sourceforge.net/DTD/sodipodi-0.dtd"
   xmlns:inkscape="http://www.inkscape.org/namespaces/inkscape"
   version="1.1"
   id="Ebene_1"
   x="0px"
   y="0px"
   width="256"
   height="167"
   viewBox="0 0 256 167"
   enable-background="new 0 0 230 150"
   xml:space="preserve"
   inkscape:version="0.48.2 r9819"
   sodipodi:docname="Organization_32_32.svg"><metadata
   id="metadata25"><rdf:RDF><cc:Work
       rdf:about=""><dc:format>image/svg+xml</dc:format><dc:type
         rdf:resource="http://purl.org/dc/dcmitype/StillImage" /></cc:Work></rdf:RDF></metadata><defs
   id="defs23" /><sodipodi:namedview
   pagecolor="#ffffff"
   bordercolor="#666666"
   borderopacity="1"
   objecttolerance="10"
   gridtolerance="10"
   guidetolerance="10"
   inkscape:pageopacity="0"
   inkscape:pageshadow="2"
   inkscape:window-width="1245"
   inkscape:window-height="835"
   id="namedview21"
   showgrid="false"
   inkscape:zoom="1.3521739"
   inkscape:cx="115"
   inkscape:cy="75"
   inkscape:window-x="2047"
   inkscape:window-y="168"
   inkscape:window-maximized="0"
   inkscape:current-layer="Ebene_1" />
<rect
   width="256"
   height="166.95508"
   id="rect3"
   x="8.8817842e-16"
   y="0.044927791"
   style="fill:#ff00ff" />
<path
   d="m 239.1765,57.54302 c -0.0356,-0.64556 -0.19479,-1.277763 -0.45524,-1.884366 -0.0345,-0.08348 -0.069,-0.166955 -0.11353,-0.24932 -0.0868,-0.173633 -0.18253,-0.342815 -0.28938,-0.50977 -0.10908,-0.173633 -0.22595,-0.336136 -0.35172,-0.497526 -0.0501,-0.06233 -0.0801,-0.131338 -0.13691,-0.191441 L 223.26011,37.569628 199.10394,9.6380443 c -1.05182,-1.218772 -2.60005,-1.9244359 -4.20616,-1.9244359 h -89.34322 c -1.60722,0 -3.15434,0.7045509 -4.20727,1.9244359 L 77.21672,37.538462 62.621508,54.211709 c -0.05564,0.06233 -0.08904,0.133564 -0.139128,0.197007 -0.124661,0.158051 -0.243756,0.31944 -0.347268,0.488622 -0.10685,0.168069 -0.203684,0.339476 -0.290502,0.514222 -0.03896,0.08014 -0.07346,0.162503 -0.109076,0.243754 -0.264902,0.606604 -0.419614,1.241033 -0.457457,1.886592 -0.01447,0.110191 -0.03339,0.218155 -0.03339,0.328346 v 78.040368 c 0,1.4603 0.596585,2.89834 1.63282,3.93457 1.036235,1.03512 2.467597,1.6306 3.934575,1.6306 l 100.592658,0.002 c 0.004,0 0.007,0 0.009,0 h 7.49071 13.79605 c 0.002,0 0.007,0 0.009,0 l 44.93428,-0.002 c 1.46475,0 2.89834,-0.59325 3.93457,-1.6306 1.03735,-1.04068 1.63282,-2.47538 1.63282,-3.93457 V 57.871365 c -0.002,-0.110192 -0.0234,-0.219268 -0.0345,-0.328345 z"
   id="path5"
   inkscape:connector-curvature="0"
   style="fill:#ffff00" />
<path
   d="M 66.790934,125.41805"
   id="path7"
   inkscape:connector-curvature="0"
   style="fill:#ffffff;stroke:#524240;stroke-width:11.13033772;stroke-linecap:round;stroke-linejoin:round" />
<path
   d="m 239.1687,57.476238 c -0.004,-0.0345 -0.007,-0.06901 -0.0111,-0.103512 -0.11575,-1.287781 -0.66782,-2.521022 -1.58273,-3.438162 -0.16918,-0.169182 -0.36507,-0.30831 -0.55429,-0.454118 L 199.10394,9.6380443 c -1.05182,-1.218772 -2.60005,-1.9244359 -4.20616,-1.9244359 h -89.04604 c -1.61056,0 -3.12762,0.685629 -4.18835,1.8988361 L 81.820229,32.280491 c -4.70702,-1.481447 -9.721238,-2.288397 -14.933575,-2.290624 -27.65889,0.0045 -50.094313,22.407598 -50.098765,50.086522 0.0045,25.778981 19.479205,47.000081 44.532482,49.772651 v 24.47672 c 0,2.01904 2.489858,3.663 5.56517,3.663 3.0742,0 5.565169,-1.64396 5.565169,-3.663 v -24.47561 c 11.891654,-1.32229 22.524466,-6.81177 30.40474,-14.95806 6.0716,7.92702 15.11834,13.46103 25.49851,14.8935 v 22.64134 c 0,3.07642 2.49652,5.56517 5.56515,5.56517 3.07532,0 5.5674,-2.48875 5.5674,-5.56517 v -22.69588 c 18.75573,-2.80595 33.14503,-18.97722 33.14726,-38.520984 -0.004,-21.527186 -17.44903,-38.956183 -38.95618,-38.956183 -8.00159,-0.0033 -15.44112,2.438657 -21.61178,6.592498 -4.24623,-9.071224 -11.10919,-16.672132 -19.63503,-21.790975 l 15.93976,-18.209232 h 83.97283 l 28.94333,33.461135 h -43.30035 c -3.07309,0 -5.56517,2.490969 -5.56517,5.566282 0,3.073086 2.48986,5.564056 5.56517,5.564056 h 50.08653 v 66.907803 h -60.66703 c -3.07753,0 -5.56516,2.48874 -5.56516,5.56739 0,3.07643 2.48986,5.5674 5.56516,5.5674 l 66.23219,-0.004 c 1.46586,0 2.89834,-0.58991 3.93457,-1.62837 1.03735,-1.03957 1.63282,-2.47428 1.63282,-3.93458 V 57.871365 c 0.003,-0.132452 -0.0234,-0.262677 -0.0367,-0.395127 z"
   id="path9"
   inkscape:connector-curvature="0"
   style="fill:#00ff00" />
<g
   id="g11"
   transform="matrix(1.1130338,0,0,1.1130338,0,2.0449273)">
	<path
   d="m 155.185,80.109 0,0"
   id="path13"
   inkscape:connector-curvature="0"
   style="fill:#ffff00" />
	<path
   d="m 120.185,55.108 c -7.107,0.004 -13.438,2.962 -18.01,7.749 l 0,0 c -1.243,1.304 -3.08,1.836 -4.83,1.401 l 0,0 C 95.595,63.82 94.224,62.487 93.741,60.75 l 0,0 C 89.599,45.965 76.22,35.102 60.176,35.108 l 0,0 C 50.495,35.11 41.775,39.016 35.422,45.356 l 0,0 c -6.345,6.35 -10.254,15.067 -10.258,24.752 l 0,0 c 0.004,9.679 3.91,18.397 10.252,24.748 l 0,0 c 6.351,6.346 15.07,10.25 24.758,10.252 l 0,0 c 11.958,0 22.459,-5.991 28.802,-15.15 l 0,0 c 1.014,-1.475 2.747,-2.289 4.527,-2.145 l 0,0 c 1.779,0.149 3.352,1.242 4.111,2.859 l 0,0 c 4.014,8.529 12.578,14.441 22.57,14.436 l 0,0 c 13.797,-0.021 24.975,-11.19 25,-24.998 l 0,0 C 145.158,66.294 133.981,55.133 120.185,55.108 l 0,0"
   id="path15"
   inkscape:connector-curvature="0"
   style="fill:#ffff00" />
</g>
<g
   id="g17"
   transform="matrix(1.1130338,0,0,1.1130338,0,2.0449273)">
	<path
   d="M 181.979,75.477"
   id="path19"
   inkscape:connector-curvature="0"
   style="fill:none" />
</g>
</svg>