<?xml version="1.0" encoding="UTF-8" standalone="no"?>
<!-- Generator: Adobe Illustrator 14.0.0, SVG Export Plug-In . SVG Version: 6.00 Build 43363)  -->

<svg
   xmlns:dc="http://purl.org/dc/elements/1.1/"
   xmlns:cc="http://creativecommons.org/ns#"
   xmlns:rdf="http://www.w3.org/1999/02/22-rdf-syntax-ns#"
   xmlns:svg="http://www.w3.org/2000/svg"
   xmlns="http://www.w3.org/2000/svg"
   xmlns:sodipodi="http://sodipodi.sourceforge.net/DTD/sodipodi-0.dtd"
   xmlns:inkscape="http://www.inkscape.org/namespaces/inkscape"
   version="1.1"
   id="Ebene_1"
   x="0px"
   y="0px"
   width="256"
   height="256"
   viewBox="0 0 256 256"
   enable-background="new 0 0 150 150"
   xml:space="preserve"
   inkscape:version="0.48.2 r9819"
   sodipodi:docname="PlusMediumview_16_16.svg"><metadata
   id="metadata17"><rdf:RDF><cc:Work
       rdf:about=""><dc:format>image/svg+xml</dc:format><dc:type
         rdf:resource="http://purl.org/dc/dcmitype/StillImage" /></cc:Work></rdf:RDF></metadata><defs
   id="defs15" /><sodipodi:namedview
   pagecolor="#ffffff"
   bordercolor="#666666"
   borderopacity="1"
   objecttolerance="10"
   gridtolerance="10"
   guidetolerance="10"
   inkscape:pageopacity="0"
   inkscape:pageshadow="2"
   inkscape:window-width="1201"
   inkscape:window-height="920"
   id="namedview13"
   showgrid="false"
   inkscape:zoom="1.5733333"
   inkscape:cx="75"
   inkscape:cy="75"
   inkscape:window-x="1947"
   inkscape:window-y="99"
   inkscape:window-maximized="0"
   inkscape:current-layer="Ebene_1" />
<rect
   width="256"
   height="256"
   id="rect3"
   x="0"
   y="0"
   style="fill:#ff00ff" />
<g
   id="g5"
   transform="scale(1.7066667,1.7066667)">
	<path
   d="m 120,40 c 0,-5.508 -4.469,-9.992 -10,-9.992 H 40.047 C 40.031,30.008 40.016,30 40,30 34.484,30 30,34.469 30,40 v 0.008 l 0,0 v 70 l 0,0 c 0.016,5.539 4.492,9.984 10,9.984 v 0.016 h 70 v -0.016 c 5.531,0 9.984,-4.445 10,-9.984 l 0,0 V 40 l 0,0 0,0 z"
   id="path7"
   inkscape:connector-curvature="0"
   style="fill:#ffff00" />
</g>
<path
   d="M 179.2,119.46667 H 136.51968 V 76.8 c 0,-4.706987 -3.82635,-8.533333 -8.53333,-8.533333 -4.72064,0 -8.53334,3.826346 -8.53334,8.533333 v 42.66667 H 76.786347 c -4.706987,0 -8.533334,3.84 -8.533334,8.53333 0,4.67968 3.826347,8.51968 8.533334,8.51968 h 42.666663 v 42.66667 c 0,4.67968 3.85366,8.53333 8.53334,8.53333 4.67968,0 8.53333,-3.85365 8.53333,-8.53333 v -42.66667 h 42.66667 c 4.67968,0 8.53333,-3.81269 8.53333,-8.51968 0,-4.70699 -3.85365,-8.53333 -8.51968,-8.53333 z"
   id="path9"
   inkscape:connector-curvature="0"
   style="fill:#00ff00" />
<path
   d="m 187.73333,34.146987 0,0 -8.41386,-0.01365 c -0.0393,0 -0.0666,-0.02731 -0.11947,-0.02731 H 76.8 c -4.706987,0 -8.546987,3.826346 -8.546987,8.56064 0,4.706986 3.826347,8.533333 8.533334,8.533333 h 8.533333 v 0.01365 h 102.4 c 9.45323,0 17.06667,7.627094 17.06667,17.053014 V 187.74698 c -0.0393,9.45323 -7.61344,17.03936 -17.06667,17.03936 v 0.0273 H 68.253013 v -0.0273 c -9.40032,0 -17.03936,-7.58613 -17.066666,-17.03936 V 85.346984 l 0,0 V 76.7744 c 0,-4.706987 -3.84,-8.533333 -8.533334,-8.533333 -4.693333,0 -8.533333,3.826346 -8.533333,8.533333 v 102.41365 c 0,0.0273 0.01365,0.0273 0.01365,0.0666 v 8.49408 c 0.01365,18.8399 15.279787,34.10603 34.133334,34.10603 v 0.0273 H 187.73333 v -0.0273 c 18.82624,0 34.11968,-15.27979 34.13334,-34.10603 V 68.282027 c 0,-18.88256 -15.3071,-34.13504 -34.13334,-34.13504 z"
   id="path11"
   inkscape:connector-curvature="0"
   style="fill:#00ff00" />
</svg>