<?xml version="1.0" encoding="UTF-8" standalone="no"?>
<!-- Generator: Adobe Illustrator 14.0.0, SVG Export Plug-In . SVG Version: 6.00 Build 43363)  -->

<svg
   xmlns:dc="http://purl.org/dc/elements/1.1/"
   xmlns:cc="http://creativecommons.org/ns#"
   xmlns:rdf="http://www.w3.org/1999/02/22-rdf-syntax-ns#"
   xmlns:svg="http://www.w3.org/2000/svg"
   xmlns="http://www.w3.org/2000/svg"
   xmlns:sodipodi="http://sodipodi.sourceforge.net/DTD/sodipodi-0.dtd"
   xmlns:inkscape="http://www.inkscape.org/namespaces/inkscape"
   version="1.1"
   id="Ebene_1"
   x="0px"
   y="0px"
   width="256"
   height="256"
   viewBox="0 0 255.99999 256"
   enable-background="new 0 0 310.023 310"
   xml:space="preserve"
   inkscape:version="0.48.2 r9819"
   sodipodi:docname="SharedInvolved_32_32.svg"><metadata
   id="metadata53"><rdf:RDF><cc:Work
       rdf:about=""><dc:format>image/svg+xml</dc:format><dc:type
         rdf:resource="http://purl.org/dc/dcmitype/StillImage" /></cc:Work></rdf:RDF></metadata><defs
   id="defs51" /><sodipodi:namedview
   pagecolor="#ffffff"
   bordercolor="#666666"
   borderopacity="1"
   objecttolerance="10"
   gridtolerance="10"
   guidetolerance="10"
   inkscape:pageopacity="0"
   inkscape:pageshadow="2"
   inkscape:window-width="1040"
   inkscape:window-height="680"
   id="namedview49"
   showgrid="false"
   inkscape:zoom="0.76129032"
   inkscape:cx="155.01151"
   inkscape:cy="126.65322"
   inkscape:window-x="2179"
   inkscape:window-y="273"
   inkscape:window-maximized="0"
   inkscape:current-layer="Ebene_1" />
<g
   id="g3"
   transform="translate(0,-54)">
</g>
<rect
   x="0.016285954"
   width="255.97624"
   height="256.00058"
   id="rect5"
   y="-0.0002784729"
   style="fill:#ff00ff" />
<g
   id="g7"
   transform="matrix(0.82575108,0,0,0.82580827,-9.9969261,-2.8e-4)">
	<path
   d="M 9.738,135.219"
   id="path9"
   inkscape:connector-curvature="0"
   style="fill:none" />
</g>
<g
   id="g11"
   transform="matrix(0.82575108,0,0,0.82580827,-9.9969261,-2.8e-4)">
	<path
   d="m 235.012,280 h -90.008 c -5.523,0 -10,-4.469 -10,-10 v -20 h -80 c -5.531,0 -10,-4.484 -10,-10 v -55 c 0,-30.328 24.68,-55 55,-55 26.445,0 48.609,18.766 53.828,43.688 9.828,-8.695 22.57,-13.688 36.164,-13.688 30.336,0 55.016,24.68 55.016,55 v 55 c 0,5.531 -4.469,10 -10,10 l 0,0 z"
   id="path13"
   inkscape:connector-curvature="0"
   style="fill:#ffff00" />
</g>
<g
   id="g15"
   transform="matrix(0.82575108,0,0,0.82580827,-9.9969261,-2.8e-4)">
	<path
   d="m 190.012,280 h -44.93 c -5.523,0 -10,-4.478 -10,-10 v -20 h -80 c -5.523,0 -10,-4.478 -10,-10 v -55 c 0,-30.327 24.669,-55 54.992,-55 26.453,0 48.605,18.769 53.837,43.686 9.819,-8.702 22.552,-13.686 36.163,-13.686 12.407,0.009 24.57,4.266 34.256,11.984 4.319,3.442 5.03,9.733 1.588,14.053 -3.442,4.32 -9.732,5.031 -14.053,1.588 -6.252,-4.982 -13.79,-7.619 -21.799,-7.625 -13.218,0 -25.158,7.465 -31.153,19.48 -1.692,3.392 -5.158,5.535 -8.948,5.535 h -4.883 c -5.523,0 -10,-4.478 -10,-10 V 185 c 0,-19.299 -15.705,-35 -35.008,-35 -19.295,0 -34.992,15.701 -34.992,35 v 45 h 80 c 5.523,0 10,4.478 10,10 v 20 h 34.93 c 5.522,0 10,4.478 10,10 0,5.522 -4.478,10 -10,10 l 0,0 z"
   id="path17"
   inkscape:connector-curvature="0"
   style="fill:#00ff00" />
</g>
<g
   id="g19"
   transform="matrix(0.82575108,0,0,0.82580827,-9.9969261,-2.8e-4)">
	<path
   d="m 190.096,149.999 c -23.435,0 -42.499,-19.065 -42.499,-42.499 0,-23.434 19.064,-42.499 42.499,-42.499 23.438,0 42.507,19.065 42.507,42.499 0,23.434 -19.069,42.499 -42.507,42.499 l 0,0 z m 0,-65 c -12.407,0 -22.501,10.094 -22.501,22.501 0,12.407 10.094,22.501 22.501,22.501 12.411,0 22.509,-10.094 22.509,-22.501 0,-12.407 -10.098,-22.501 -22.509,-22.501 l 0,0 z"
   id="path21"
   inkscape:connector-curvature="0"
   style="fill:#00ff00" />
</g>
<g
   id="g23"
   transform="matrix(0.82575108,0,0,0.82580827,-9.9969261,-2.8e-4)">
	<path
   d="m 100.096,119.999 c -23.434,0 -42.499,-19.068 -42.499,-42.506 0,-23.429 19.065,-42.491 42.499,-42.491 23.434,0 42.499,19.062 42.499,42.491 0,23.437 -19.065,42.506 -42.499,42.506 l 0,0 z m 0,-65 c -12.407,0 -22.501,10.091 -22.501,22.494 0,12.412 10.094,22.509 22.501,22.509 12.407,0 22.501,-10.098 22.501,-22.509 0.001,-12.404 -10.094,-22.494 -22.501,-22.494 l 0,0 z"
   id="path25"
   inkscape:connector-curvature="0"
   style="fill:#00ff00" />
</g>
<path
   d="M 135.77044,208.35527"
   id="path27"
   inkscape:connector-curvature="0"
   style="fill:#ffffff;stroke:#147da2;stroke-width:16.51559258;stroke-linecap:round;stroke-linejoin:round" />
<g
   id="g29"
   transform="matrix(0.82575108,0,0,0.82580827,-9.9969261,-2.8e-4)">
	<g
   id="g31">
		<path
   d="m 284.01,280.009 c -1.036,0 -2.072,-0.32 -2.951,-0.961 l -31.033,-22.63 -31.033,22.63 c -1.754,1.277 -4.132,1.282 -5.89,0.009 -1.758,-1.272 -2.495,-3.533 -1.827,-5.599 l 11.853,-36.644 -31.057,-22.675 c -1.751,-1.278 -2.48,-3.538 -1.809,-5.6 0.673,-2.061 2.595,-3.455 4.763,-3.455 h 38.372 l 11.862,-36.628 c 0.669,-2.066 2.594,-3.466 4.766,-3.466 2.172,0 4.097,1.399 4.766,3.466 l 11.862,36.628 h 38.372 c 2.168,0 4.09,1.395 4.763,3.455 0.672,2.062 -0.058,4.321 -1.809,5.6 l -31.057,22.675 11.853,36.644 c 0.668,2.065 -0.069,4.326 -1.827,5.599 -0.878,0.634 -1.909,0.952 -2.939,0.952 l 0,0 z M 250.025,245.21 c 1.036,0 2.072,0.32 2.951,0.961 l 21.52,15.692 -8.221,-25.415 c -0.666,-2.059 0.064,-4.312 1.812,-5.588 l 21.583,-15.758 h -26.66 c -2.172,0 -4.097,-1.399 -4.766,-3.466 l -8.219,-25.378 -8.219,25.378 c -0.669,2.066 -2.594,3.466 -4.766,3.466 h -26.66 l 21.583,15.758 c 1.747,1.276 2.478,3.529 1.812,5.588 l -8.221,25.415 21.52,-15.692 c 0.879,-0.641 1.915,-0.961 2.951,-0.961 l 0,0 z"
   id="path33"
   inkscape:connector-curvature="0"
   style="fill:#00ff00" />
	</g>
</g>
<g
   id="g35"
   transform="matrix(0.82575108,0,0,0.82580827,-9.9969261,-2.8e-4)">
	<path
   d="m 190.097,84.999 c -12.407,0 -22.501,10.094 -22.501,22.501 0,12.407 10.094,22.501 22.501,22.501 12.411,0 22.509,-10.094 22.509,-22.501 0,-12.407 -10.098,-22.501 -22.509,-22.501 l 0,0 z"
   id="path37"
   inkscape:connector-curvature="0"
   style="fill:#ffff00" />
</g>
<g
   id="g39"
   transform="matrix(0.82575108,0,0,0.82580827,-9.9969261,-2.8e-4)">
	<path
   d="m 100.096,54.999 c -12.407,0 -22.501,10.091 -22.501,22.494 0,12.412 10.094,22.509 22.501,22.509 12.407,0 22.501,-10.098 22.501,-22.509 0.001,-12.404 -10.094,-22.494 -22.501,-22.494 l 0,0 z"
   id="path41"
   inkscape:connector-curvature="0"
   style="fill:#ffff00" />
</g>
<g
   id="g43"
   transform="matrix(0.82575108,0,0,0.82580827,-9.9969261,-2.8e-4)">
	<g
   id="g45">
		<path
   d="m 250.026,245.21 c 1.036,0 2.072,0.32 2.951,0.961 l 21.52,15.692 -8.221,-25.415 c -0.666,-2.059 0.064,-4.312 1.812,-5.588 l 21.583,-15.758 h -26.66 c -2.172,0 -4.097,-1.399 -4.766,-3.466 l -8.219,-25.378 -8.219,25.378 c -0.669,2.066 -2.594,3.466 -4.766,3.466 h -26.66 l 21.583,15.758 c 1.747,1.276 2.478,3.529 1.812,5.588 l -8.221,25.415 21.52,-15.692 c 0.879,-0.641 1.915,-0.961 2.951,-0.961 l 0,0 z"
   id="path47"
   inkscape:connector-curvature="0"
   style="fill:#ffff00" />
	</g>
</g>
</svg>