<?xml version="1.0" encoding="utf-8"?>
<!-- Generator: Adobe Illustrator 14.0.0, SVG Export Plug-In . SVG Version: 6.00 Build 43363)  -->
<!DOCTYPE svg PUBLIC "-//W3C//DTD SVG 1.1//EN" "http://www.w3.org/Graphics/SVG/1.1/DTD/svg11.dtd">
<svg version="1.1" xmlns="http://www.w3.org/2000/svg" xmlns:xlink="http://www.w3.org/1999/xlink" x="0px" y="0px" width="256px"
	 height="256px" viewBox="-1603 1497 256 256" enable-background="new -1603 1497 256 256" xml:space="preserve">
<g id="Hilfslinien">
</g>
<g id="back">
	<rect x="-1603" y="1497" fill="#FF00FF" width="256" height="256"/>
</g>
<g id="front">
	<path fill="#FFFF00" d="M-1355,1584.997c0-4.417-1.792-8.416-4.687-11.312l0,0l-63.994-63.993
		c-2.896-2.899-6.899-4.693-11.32-4.693l0,0h-80l0,0c-0.001,0-0.002,0-0.003,0c-8.832-0.004-15.996,7.162-15.996,15.998
		c0,0.001,0,0.001,0,0.002H-1531v175.999h0c0,8.84,7.165,16.003,15.999,16.001h0h0h144v-0.001c8.833,0.001,15.996-7.161,16-15.999
		l0,0v-112l0,0C-1355,1584.998-1355,1584.998-1355,1584.997z"/>
	<line fill="none" stroke="#00FF00" stroke-width="32" x1="-1515" y1="1696.999" x2="-1371" y2="1696.999"/>
	<line fill="none" stroke="#00FF00" stroke-width="32" x1="-1371" y1="1696.999" x2="-1371" y2="1584.999"/>
	<path fill="#00FF00" d="M-1435,1536.999c-8.835,0.002-15.999-7.162-15.999-16.002c0-8.836,7.164-16.002,15.996-15.998
		c8.836-0.002,16.004,7.162,16.004,15.998C-1419.001,1529.837-1426.165,1537.001-1435,1536.999z"/>
	<circle fill="#00FF00" cx="-1443" cy="1592.999" r="8"/>
	<path fill="#00FF00" d="M-1515,1536.999c-8.835,0.002-15.999-7.162-15.999-16.002c0-8.836,7.164-16.002,15.996-15.998
		c8.836-0.002,16.004,7.162,16.004,15.998C-1499.001,1529.837-1506.165,1537.001-1515,1536.999z"/>
	<path fill="#00FF00" d="M-1515,1712.999c-8.835,0.002-15.999-7.162-15.999-16.002c0-8.836,7.164-16.002,15.996-15.998
		c8.836-0.002,16.004,7.162,16.004,15.998C-1499.001,1705.837-1506.166,1713.001-1515,1712.999z"/>
	<path fill="#00FF00" d="M-1371,1712.998c-8.835,0.002-15.999-7.162-15.999-16.002c0-8.836,7.164-16.002,15.996-15.998
		c8.836-0.002,16.004,7.162,16.004,15.998C-1355.001,1705.836-1362.166,1713-1371,1712.998z"/>
	<path fill="#00FF00" d="M-1371,1600.999c-8.835,0.002-15.999-7.162-15.999-16.002c0-8.836,7.164-16.002,15.996-15.998
		c8.836-0.002,16.004,7.162,16.004,15.998C-1355.001,1593.837-1362.166,1601.001-1371,1600.999z"/>
	<line fill="none" stroke="#00FF00" stroke-width="16" x1="-1443" y1="1592.999" x2="-1371" y2="1592.999"/>
	<line fill="none" stroke="#00FF00" stroke-width="32" x1="-1435" y1="1520.999" x2="-1515" y2="1520.999"/>
	<line fill="none" stroke="#00FF00" stroke-width="32" x1="-1515" y1="1520.999" x2="-1515" y2="1696.998"/>
	<line fill="none" stroke="#00FF00" stroke-width="16" x1="-1443" y1="1520.999" x2="-1443" y2="1592.999"/>
	<line fill="none" stroke="#00FF00" stroke-width="32" x1="-1371" y1="1584.999" x2="-1435" y2="1520.999"/>
	<circle fill="#00FF00" cx="-1531" cy="1681" r="64"/>
	<line fill="none" stroke="#FFFF00" stroke-width="16" x1="-1579.001" y1="1681" x2="-1482.999" y2="1681"/>
	<line fill="none" stroke="#FFFF00" stroke-width="16" x1="-1531" y1="1729.002" x2="-1531" y2="1632.998"/>
	<circle fill="#FFFF00" cx="-1579.001" cy="1681" r="8"/>
	<circle fill="#FFFF00" cx="-1482.996" cy="1681" r="8"/>
	<circle fill="#FFFF00" cx="-1530.999" cy="1729.005" r="8"/>
	<circle fill="#FFFF00" cx="-1530.999" cy="1632.995" r="8"/>
</g>
</svg>
