<?xml version="1.0" encoding="utf-8"?>
<!-- Generator: Adobe Illustrator 14.0.0, SVG Export Plug-In . SVG Version: 6.00 Build 43363)  -->
<!DOCTYPE svg PUBLIC "-//W3C//DTD SVG 1.1//EN" "http://www.w3.org/Graphics/SVG/1.1/DTD/svg11.dtd">
<svg version="1.1" xmlns="http://www.w3.org/2000/svg" xmlns:xlink="http://www.w3.org/1999/xlink" x="0px" y="0px" width="256px"
	 height="256px" viewBox="-1603 1497 256 256" enable-background="new -1603 1497 256 256" xml:space="preserve">
<g id="Hilfslinien">
</g>
<g id="back">
	<rect x="-1603" y="1497" fill="#FF00FF" width="256" height="256"/>
</g>
<g id="front">
	<path fill="#FFFF00" d="M-1363,1592.998c0-4.417-1.792-8.416-4.687-11.312l0,0l-63.994-63.993
		c-2.896-2.899-6.899-4.693-11.32-4.693l0,0h-80l0,0c-0.001,0-0.002,0-0.003,0c-8.832-0.004-15.996,7.162-15.996,15.998
		c0,0.001,0,0.001,0,0.002H-1539v175.999h0c0,8.84,7.165,16.003,15.999,16.001c0,0,0,0,0,0h0h144v-0.001
		c8.833,0.001,15.996-7.161,16-15.999l0,0v-112l0,0C-1363,1592.999-1363,1592.999-1363,1592.998z"/>
	<line fill="none" stroke="#00FF00" stroke-width="32" x1="-1523" y1="1705" x2="-1379" y2="1705"/>
	<line fill="none" stroke="#00FF00" stroke-width="32" x1="-1379" y1="1705" x2="-1379" y2="1593"/>
	<path fill="#00FF00" d="M-1443,1545c-8.835,0.002-15.999-7.162-15.999-16.002c0-8.836,7.164-16.002,15.996-15.998
		c8.836-0.002,16.004,7.162,16.004,15.998C-1427.001,1537.838-1434.166,1545.002-1443,1545z"/>
	<circle fill="#00FF00" cx="-1451.001" cy="1601" r="8"/>
	<path fill="#00FF00" d="M-1523,1545c-8.835,0.002-15.999-7.162-15.999-16.002c0-8.836,7.164-16.002,15.996-15.998
		c8.836-0.002,16.004,7.162,16.004,15.998C-1507.001,1537.838-1514.166,1545.002-1523,1545z"/>
	<path fill="#00FF00" d="M-1523.001,1721c-8.835,0.002-15.999-7.162-15.999-16.002c0-8.836,7.164-16.002,15.996-15.998
		c8.836-0.002,16.004,7.162,16.004,15.998C-1507.002,1713.838-1514.166,1721.002-1523.001,1721z"/>
	<path fill="#00FF00" d="M-1379.001,1720.999c-8.835,0.002-15.999-7.162-15.999-16.002c0-8.836,7.164-16.002,15.996-15.998
		c8.836-0.002,16.004,7.162,16.004,15.998C-1363.002,1713.837-1370.166,1721.001-1379.001,1720.999z"/>
	<path fill="#00FF00" d="M-1379.001,1609c-8.835,0.002-15.999-7.162-15.999-16.002c0-8.836,7.164-16.002,15.996-15.998
		c8.836-0.002,16.004,7.162,16.004,15.998C-1363.002,1601.838-1370.166,1609.002-1379.001,1609z"/>
	<line fill="none" stroke="#00FF00" stroke-width="16" x1="-1451" y1="1601" x2="-1379" y2="1601"/>
	<line fill="none" stroke="#00FF00" stroke-width="32" x1="-1443" y1="1529" x2="-1523" y2="1529"/>
	<line fill="none" stroke="#00FF00" stroke-width="32" x1="-1523" y1="1529" x2="-1523" y2="1704.999"/>
	<line fill="none" stroke="#00FF00" stroke-width="16" x1="-1451" y1="1529" x2="-1451" y2="1601"/>
	<line fill="none" stroke="#00FF00" stroke-width="32" x1="-1379" y1="1593" x2="-1443" y2="1529"/>
	<circle fill="#00FF00" cx="-1531" cy="1681" r="56"/>
	<g>
		<line fill="none" stroke="#FFFF00" stroke-width="16" x1="-1563" y1="1681" x2="-1499" y2="1681"/>
		<line fill="none" stroke="#FFFF00" stroke-width="16" x1="-1531" y1="1713" x2="-1531" y2="1649"/>
		<circle fill="#FFFF00" cx="-1563" cy="1681" r="8"/>
		<circle fill="#FFFF00" cx="-1498.997" cy="1681" r="8"/>
		<circle fill="#FFFF00" cx="-1530.999" cy="1713.003" r="8"/>
		<circle fill="#FFFF00" cx="-1530.999" cy="1648.997" r="8"/>
	</g>
</g>
</svg>
