<?xml version="1.0" encoding="utf-8"?>
<!-- Generator: Adobe Illustrator 14.0.0, SVG Export Plug-In . SVG Version: 6.00 Build 43363)  -->
<!DOCTYPE svg PUBLIC "-//W3C//DTD SVG 1.1//EN" "http://www.w3.org/Graphics/SVG/1.1/DTD/svg11.dtd">
<svg version="1.1" id="Ebene_1" xmlns="http://www.w3.org/2000/svg" xmlns:xlink="http://www.w3.org/1999/xlink" x="0px" y="0px"
	 width="256px" height="256px" viewBox="-1603 1497 256 256" enable-background="new -1603 1497 256 256" xml:space="preserve">
<rect x="-1603" y="1497" fill="#FF00FF" width="256" height="256"/>
<circle fill="#FFFF00" cx="-1475" cy="1625" r="112"/>
<path fill="#00FF00" d="M-1475,1513c-19.672,0-39.026,5.176-55.97,14.969l0.009,0.016c-0.012,0.007-0.025,0.013-0.038,0.02
	c-5.74,3.314-7.706,10.653-4.395,16.393c3.314,5.739,10.655,7.705,16.393,4.393c0.072-0.042,0.136-0.091,0.207-0.134
	c13.259-7.624,28.397-11.655,43.794-11.655c48.523,0,88,39.476,88,87.998c0,48.524-39.477,88.002-88,88.002
	c-48.523,0-88-39.478-88-88.002c0-15.398,4.033-30.537,11.658-43.797c0.042-0.069,0.09-0.132,0.131-0.202
	c3.313-5.737,1.348-13.078-4.393-16.393c-5.738-3.313-13.078-1.345-16.39,4.392c-0.005,0.01-0.009,0.02-0.015,0.028l-0.016-0.009
	c-9.797,16.946-14.976,36.304-14.976,55.98c0,61.758,50.243,112.002,112,112.002c61.757,0,112-50.244,112-112.002
	C-1363,1563.242-1413.243,1513-1475,1513z"/>
<path fill="#00FF00" d="M-1419,1612.996h-83.029l36.081-36.081l0,0c0,0,0-0.001,0.001-0.001c4.687-4.687,4.687-12.284,0.001-16.97
	c-4.687-4.687-12.285-4.688-16.971,0c0,0,0,0,0,0.001l0-0.001l-56.557,56.558c-0.003,0.003-0.007,0.006-0.01,0.009
	c-0.006,0.006-0.011,0.013-0.017,0.019c-0.273,0.274-0.533,0.562-0.779,0.862c-0.107,0.131-0.2,0.269-0.301,0.402
	c-0.135,0.18-0.273,0.355-0.398,0.543c-0.107,0.16-0.2,0.327-0.298,0.491c-0.103,0.171-0.211,0.34-0.306,0.517
	c-0.089,0.167-0.164,0.339-0.245,0.509c-0.088,0.185-0.18,0.367-0.259,0.557c-0.067,0.163-0.121,0.33-0.181,0.495
	c-0.074,0.204-0.151,0.406-0.215,0.614c-0.049,0.162-0.084,0.326-0.125,0.489c-0.055,0.216-0.115,0.43-0.159,0.649
	c-0.003,0.017-0.008,0.031-0.011,0.047c-0.034,0.175-0.05,0.352-0.076,0.526c-0.029,0.195-0.065,0.388-0.084,0.585
	c-0.037,0.375-0.055,0.752-0.057,1.129c0,0.017-0.002,0.033-0.002,0.051v0.001c0,0.396,0.021,0.793,0.06,1.188
	c0.016,0.16,0.046,0.315,0.068,0.475c0.032,0.229,0.06,0.461,0.105,0.689c0.036,0.181,0.086,0.356,0.13,0.535
	c0.05,0.202,0.095,0.406,0.156,0.606c0.052,0.17,0.116,0.335,0.176,0.502c0.072,0.204,0.139,0.408,0.223,0.608
	c0.062,0.149,0.135,0.292,0.203,0.438c0.098,0.21,0.192,0.422,0.302,0.627c0.07,0.131,0.151,0.254,0.226,0.382
	c0.123,0.21,0.243,0.421,0.38,0.625c0.084,0.126,0.18,0.244,0.27,0.367c0.141,0.193,0.277,0.389,0.43,0.575
	c0.138,0.167,0.289,0.322,0.436,0.481c0.118,0.129,0.226,0.263,0.351,0.388l56.566,56.568c4.688,4.686,12.285,4.686,16.971,0
	s4.686-12.285,0-16.971l-36.086-36.086H-1419c6.628,0,12-5.373,12-12S-1412.372,1612.996-1419,1612.996z"/>
</svg>
