<?xml version="1.0" encoding="utf-8"?>
<!-- Generator: Adobe Illustrator 14.0.0, SVG Export Plug-In . SVG Version: 6.00 Build 43363)  -->
<!DOCTYPE svg PUBLIC "-//W3C//DTD SVG 1.1//EN" "http://www.w3.org/Graphics/SVG/1.1/DTD/svg11.dtd">
<svg version="1.1" id="Ebene_1" xmlns="http://www.w3.org/2000/svg" xmlns:xlink="http://www.w3.org/1999/xlink" x="0px" y="0px"
	 width="256px" height="256px" viewBox="-1603 1497 256 256" enable-background="new -1603 1497 256 256" xml:space="preserve">
<rect x="-1603" y="1497" fill="#FF00FF" width="256" height="256"/>
<circle fill="#FFFF00" cx="-1475" cy="1625" r="112"/>
<path fill="#00FF00" d="M-1475,1513c-19.672,0-39.026,5.176-55.97,14.969l0.009,0.016c-0.012,0.007-0.025,0.013-0.038,0.02
	c-5.74,3.314-7.706,10.653-4.395,16.393c3.314,5.739,10.655,7.705,16.393,4.393c0.072-0.042,0.136-0.091,0.207-0.134
	c13.259-7.624,28.397-11.655,43.794-11.655c48.523,0,88,39.476,88,87.998c0,48.524-39.477,88.002-88,88.002
	c-48.523,0-88-39.478-88-88.002c0-15.398,4.033-30.537,11.658-43.797c0.042-0.069,0.09-0.132,0.131-0.202
	c3.313-5.737,1.348-13.078-4.393-16.393c-5.738-3.313-13.078-1.345-16.39,4.392c-0.005,0.01-0.009,0.02-0.015,0.028l-0.016-0.009
	c-9.797,16.946-14.976,36.304-14.976,55.98c0,61.758,50.243,112.002,112,112.002c61.757,0,112-50.244,112-112.002
	C-1363,1563.242-1413.243,1513-1475,1513z"/>
<path fill="#00FF00" d="M-1409.946,1617.081C-1409.946,1617.081-1409.947,1617.081-1409.946,1617.081L-1409.946,1617.081
	l-56.557-56.559c-0.003-0.003-0.006-0.007-0.009-0.01c-0.006-0.006-0.013-0.011-0.019-0.017c-0.275-0.273-0.562-0.533-0.862-0.779
	c-0.131-0.107-0.27-0.201-0.404-0.303c-0.179-0.134-0.354-0.272-0.541-0.396c-0.161-0.108-0.329-0.201-0.494-0.3
	c-0.171-0.104-0.338-0.21-0.515-0.305c-0.167-0.089-0.339-0.164-0.509-0.245c-0.185-0.088-0.367-0.18-0.557-0.258
	c-0.163-0.067-0.329-0.121-0.495-0.182c-0.204-0.074-0.406-0.151-0.615-0.215c-0.162-0.049-0.327-0.084-0.491-0.126
	c-0.215-0.056-0.428-0.115-0.647-0.158c-0.016-0.003-0.032-0.009-0.048-0.012c-0.174-0.033-0.351-0.05-0.526-0.076
	c-0.195-0.028-0.387-0.064-0.584-0.084c-0.375-0.037-0.752-0.056-1.129-0.057c-0.017,0-0.034-0.003-0.051-0.003c0,0-0.001,0-0.001,0
	c-0.396,0-0.792,0.021-1.187,0.06c-0.16,0.017-0.316,0.047-0.474,0.069c-0.23,0.031-0.461,0.06-0.689,0.104
	c-0.182,0.036-0.357,0.087-0.536,0.131c-0.203,0.05-0.406,0.096-0.606,0.156c-0.171,0.052-0.335,0.116-0.503,0.176
	c-0.204,0.071-0.408,0.14-0.608,0.223c-0.149,0.062-0.292,0.136-0.438,0.203c-0.21,0.098-0.421,0.192-0.627,0.302
	c-0.131,0.07-0.254,0.151-0.382,0.227c-0.21,0.123-0.421,0.242-0.625,0.379c-0.126,0.085-0.244,0.181-0.367,0.271
	c-0.193,0.141-0.389,0.276-0.575,0.43c-0.167,0.138-0.322,0.289-0.481,0.436c-0.128,0.118-0.263,0.226-0.388,0.351l-56.568,56.566
	c-4.686,4.688-4.686,12.285,0,16.971s12.285,4.686,16.971,0l36.086-36.086v83.033c0,6.628,5.373,12,12,12s12-5.372,12-12v-83.029
	l36.081,36.081l0,0c0,0,0,0.001,0.001,0.001c4.687,4.687,12.284,4.687,16.97,0.001
	C-1405.26,1629.365-1405.259,1621.767-1409.946,1617.081z"/>
</svg>
