<?xml version="1.0" encoding="utf-8"?>
<!-- Generator: Adobe Illustrator 14.0.0, SVG Export Plug-In . SVG Version: 6.00 Build 43363)  -->
<!DOCTYPE svg PUBLIC "-//W3C//DTD SVG 1.1//EN" "http://www.w3.org/Graphics/SVG/1.1/DTD/svg11.dtd">
<svg version="1.1" id="Ebene_1" xmlns="http://www.w3.org/2000/svg" xmlns:xlink="http://www.w3.org/1999/xlink" x="0px" y="0px"
	 width="160px" height="160px" viewBox="0 0 160 160" enable-background="new 0 0 160 160" xml:space="preserve">
<rect y="-0.001" fill="#FF00FF" width="160" height="159.995"/>
<path fill="#FFFF00" d="M79.914,9.906c38.664,0,70,31.335,70,70c0,38.664-31.336,70-70,70c-38.665,0-70-31.336-70-70
	C9.914,41.242,41.25,9.906,79.914,9.906z"/>
<g>
	<path fill="#00FF00" d="M108.78,76.763l0.016-0.014L78.798,41.75l-0.017,0.014c-0.917-1.069-2.261-1.76-3.78-1.76
		c-2.761,0-5.001,2.238-5.001,5c0,1.243,0.47,2.365,1.221,3.24l-0.017,0.014l22.924,26.745H35.001l0,0c-2.761,0-5,2.238-5,5
		c0,2.761,2.239,5,5,5v0.001h59.127l-22.924,26.745l0.015,0.013c-0.75,0.874-1.219,1.995-1.219,3.237c0,2.762,2.24,5,5.001,5
		c1.518,0,2.861-0.69,3.778-1.758l0.019,0.016l29.998-35l-0.016-0.014c0.75-0.874,1.221-1.997,1.221-3.24
		C110.001,78.76,109.53,77.638,108.78,76.763z"/>
	<path fill="#00FF00" d="M130.006,50.004c0-2.761-2.238-5-4.999-5c-2.762,0-5.001,2.239-5.001,5c0,0.003,0.001,0.006,0.001,0.01
		v59.979c0,0.003-0.001,0.007-0.001,0.01c0,2.762,2.239,5,5.001,5c2.761,0,4.999-2.238,4.999-5h0.001L130.006,50.004L130.006,50.004
		z"/>
</g>
</svg>
