<?xml version="1.0" encoding="utf-8"?>
<!-- Generator: Adobe Illustrator 14.0.0, SVG Export Plug-In . SVG Version: 6.00 Build 43363)  -->
<!DOCTYPE svg PUBLIC "-//W3C//DTD SVG 1.1//EN" "http://www.w3.org/Graphics/SVG/1.1/DTD/svg11.dtd">
<svg version="1.1" id="Ebene_1" xmlns="http://www.w3.org/2000/svg" xmlns:xlink="http://www.w3.org/1999/xlink" x="0px" y="0px"
	 width="256px" height="256px" viewBox="-1603 1497 256 256" enable-background="new -1603 1497 256 256" xml:space="preserve">
<rect x="-1603" y="1497" fill="#FF00FF" width="256" height="256"/>
<circle fill="#FFFF00" cx="-1475" cy="1625" r="112"/>
<path fill="#00FF00" d="M-1475,1513c-19.672,0-39.026,5.176-55.97,14.969l0.009,0.016c-0.012,0.007-0.025,0.013-0.038,0.02
	c-5.74,3.314-7.706,10.653-4.395,16.393c3.314,5.739,10.655,7.705,16.393,4.393c0.072-0.042,0.136-0.091,0.207-0.134
	c13.259-7.624,28.397-11.655,43.794-11.655c48.523,0,88,39.476,88,87.998c0,48.524-39.477,88.002-88,88.002
	c-48.523,0-88-39.478-88-88.002c0-15.398,4.033-30.537,11.658-43.797c0.042-0.069,0.09-0.132,0.131-0.202
	c3.313-5.737,1.348-13.078-4.393-16.393c-5.738-3.313-13.078-1.345-16.39,4.392c-0.005,0.01-0.009,0.02-0.015,0.028l-0.016-0.009
	c-9.797,16.946-14.976,36.304-14.976,55.98c0,61.758,50.243,112.002,112,112.002c61.757,0,112-50.244,112-112.002
	C-1363,1563.242-1413.243,1513-1475,1513z"/>
<path fill="#00FF00" d="M-1409.416,1632.2c0.134-0.179,0.272-0.354,0.396-0.54c0.108-0.161,0.201-0.329,0.3-0.494
	c0.103-0.171,0.209-0.339,0.304-0.515c0.089-0.167,0.164-0.339,0.245-0.509c0.088-0.185,0.18-0.367,0.258-0.557
	c0.067-0.163,0.121-0.33,0.181-0.495c0.074-0.204,0.152-0.405,0.215-0.614c0.049-0.162,0.084-0.327,0.126-0.491
	c0.055-0.215,0.115-0.428,0.158-0.647c0.003-0.016,0.008-0.031,0.012-0.048c0.034-0.176,0.051-0.354,0.077-0.532
	c0.028-0.192,0.064-0.383,0.083-0.578c0.039-0.39,0.059-0.781,0.059-1.173c0-0.002,0-0.005,0-0.007l0,0
	c0-0.397-0.021-0.795-0.06-1.19c-0.015-0.151-0.044-0.297-0.064-0.446c-0.033-0.24-0.062-0.48-0.11-0.719
	c-0.034-0.173-0.083-0.34-0.125-0.511c-0.052-0.211-0.099-0.423-0.162-0.631c-0.05-0.163-0.112-0.319-0.168-0.479
	c-0.074-0.211-0.145-0.424-0.231-0.632c-0.059-0.141-0.128-0.275-0.192-0.413c-0.101-0.219-0.2-0.438-0.314-0.652
	c-0.064-0.12-0.139-0.233-0.208-0.352c-0.128-0.22-0.254-0.441-0.398-0.655c-0.075-0.111-0.16-0.216-0.239-0.324
	c-0.15-0.208-0.297-0.417-0.461-0.617c-0.106-0.13-0.225-0.248-0.336-0.372c-0.148-0.165-0.288-0.335-0.447-0.494l-56.557-56.559
	c-0.003-0.003-0.006-0.007-0.009-0.01c-4.688-4.686-12.285-4.686-16.971,0s-4.687,12.285,0,16.971l36.086,36.086H-1531l0,0h0
	c-6.628,0-12,5.373-12,12s5.372,12,12,12h0l0,0h83.029l-36.081,36.081l0,0c0,0,0,0.001-0.001,0.001
	c-4.687,4.687-4.687,12.284-0.001,16.97c4.687,4.687,12.285,4.688,16.971,0c0,0,0,0,0-0.001l0,0.001l56.557-56.558
	c0.003-0.003,0.007-0.006,0.01-0.009c0.006-0.006,0.011-0.013,0.017-0.019c0.273-0.274,0.533-0.562,0.779-0.862
	C-1409.611,1632.474-1409.518,1632.335-1409.416,1632.2z"/>
</svg>
