<?xml version="1.0" encoding="utf-8"?>
<!-- Generator: Adobe Illustrator 14.0.0, SVG Export Plug-In . SVG Version: 6.00 Build 43363)  -->
<!DOCTYPE svg PUBLIC "-//W3C//DTD SVG 1.1//EN" "http://www.w3.org/Graphics/SVG/1.1/DTD/svg11.dtd">
<svg version="1.1" id="Ebene_1" xmlns="http://www.w3.org/2000/svg" xmlns:xlink="http://www.w3.org/1999/xlink" x="0px" y="0px"
	 width="256px" height="256px" viewBox="-1603 1497 256 256" enable-background="new -1603 1497 256 256" xml:space="preserve">
<rect x="-1603" y="1497" fill="#FF00FF" width="256" height="256"/>
<circle fill="#FFFF00" cx="-1475" cy="1625" r="112"/>
<path fill="#00FF00" d="M-1475,1513c-19.672,0-39.026,5.176-55.97,14.969l0.009,0.016c-0.012,0.007-0.025,0.013-0.038,0.02
	c-5.74,3.314-7.706,10.653-4.395,16.393c3.314,5.739,10.655,7.705,16.393,4.393c0.072-0.042,0.136-0.091,0.207-0.134
	c13.259-7.624,28.397-11.655,43.794-11.655c48.523,0,88,39.476,88,87.998c0,48.524-39.477,88.002-88,88.002
	c-48.523,0-88-39.478-88-88.002c0-15.398,4.033-30.537,11.658-43.797c0.042-0.069,0.09-0.132,0.131-0.202
	c3.313-5.737,1.348-13.078-4.393-16.393c-5.738-3.313-13.078-1.345-16.39,4.392c-0.005,0.01-0.009,0.02-0.015,0.028l-0.016-0.009
	c-9.797,16.946-14.976,36.304-14.976,55.98c0,61.758,50.243,112.002,112,112.002c61.757,0,112-50.244,112-112.002
	C-1363,1563.242-1413.243,1513-1475,1513z"/>
<path fill="#00FF00" d="M-1430.243,1633.187c4.31-4.605,4.309-11.767,0-16.373l0.015-0.015l-56.568-56.568l-0.014,0.014
	c-2.145-2.007-5.019-3.244-8.188-3.244c-6.625,0-11.999,5.371-12,12l0,111.989c0,0.003,0,0.007,0,0.01
	c-0.002,6.631,5.373,12.002,12,12.002c3.168,0,6.042-1.238,8.187-3.245l0.013,0.014l0.282-0.281
	c0.001-0.002,0.002-0.003,0.004-0.004l55.989-55.99c0.003-0.003,0.007-0.006,0.01-0.009s0.006-0.007,0.009-0.01l0.275-0.275
	L-1430.243,1633.187z M-1483,1597.969l27.03,27.03l-27.03,27.029L-1483,1597.969z"/>
</svg>
