<?xml version="1.0" encoding="utf-8"?>
<!-- Generator: Adobe Illustrator 14.0.0, SVG Export Plug-In . SVG Version: 6.00 Build 43363)  -->
<!DOCTYPE svg PUBLIC "-//W3C//DTD SVG 1.1//EN" "http://www.w3.org/Graphics/SVG/1.1/DTD/svg11.dtd">
<svg version="1.1" xmlns="http://www.w3.org/2000/svg" xmlns:xlink="http://www.w3.org/1999/xlink" x="0px" y="0px" width="256px"
	 height="256px" viewBox="-1603 1497 256 256" enable-background="new -1603 1497 256 256" xml:space="preserve">
<g id="Hilfslinien">
</g>
<g id="back">
	<rect x="-1603" y="1497" fill="#FF00FF" width="256" height="256"/>
</g>
<g id="front">
	<path fill="#00FF00" d="M-1475.002,1513.001c-8.832-0.002-15.997,7.162-15.998,16c0.001,8.834,7.166,15.998,16.001,15.999
		c8.833,0,15.998-7.165,16-15.999C-1459.001,1520.163-1466.165,1512.999-1475.002,1513.001z"/>
	<g>
		<path fill="#00FF00" d="M-1394.999,1625.001c-0.003,8.835,7.161,15.999,16,15.999c8.837-0.001,16.002-7.166,15.999-15.996
			c0.003-8.836-7.162-16.004-15.999-16.003C-1387.838,1609.002-1395.001,1616.165-1394.999,1625.001z"/>
		<path fill="#00FF00" d="M-1587.001,1625.002c0,8.832,7.166,15.999,16.002,15.999c8.833,0,15.998-7.165,16-15.999
			c-0.002-8.836-7.166-16-16.001-16.001C-1579.837,1609.003-1587.001,1616.166-1587.001,1625.002z"/>
		<path fill="#00FF00" d="M-1475.001,1705.002c-8.834-0.001-15.998,7.162-15.998,16.002c0,8.836,7.165,16,15.996,15.998
			c8.836,0.002,16.004-7.162,16.003-15.999C-1459.001,1712.165-1466.165,1705.002-1475.001,1705.002z"/>
		<line fill="none" stroke="#00FF00" stroke-width="32" x1="-1571.001" y1="1625.001" x2="-1475" y2="1721.001"/>
		<line fill="none" stroke="#00FF00" stroke-width="32" x1="-1475" y1="1721.001" x2="-1378.999" y2="1625"/>
	</g>
	<line fill="none" stroke="#00FF00" stroke-width="32" x1="-1475" y1="1529" x2="-1475" y2="1721.001"/>
</g>
</svg>
