<?xml version="1.0" encoding="utf-8"?>
<!-- Generator: Adobe Illustrator 14.0.0, SVG Export Plug-In . SVG Version: 6.00 Build 43363)  -->
<!DOCTYPE svg PUBLIC "-//W3C//DTD SVG 1.1//EN" "http://www.w3.org/Graphics/SVG/1.1/DTD/svg11.dtd">
<svg version="1.1" xmlns="http://www.w3.org/2000/svg" xmlns:xlink="http://www.w3.org/1999/xlink" x="0px" y="0px" width="256px"
	 height="256px" viewBox="-1603 1497 256 256" enable-background="new -1603 1497 256 256" xml:space="preserve">
<g id="Hilfslinien">
</g>
<g id="back">
	<rect x="-1603" y="1497" fill="#FF00FF" width="256" height="256"/>
	<circle fill="#FFFF00" cx="-1475" cy="1625" r="112"/>
</g>
<g id="front">
	<path fill="#00FF00" d="M-1507.001,1593.002c-8.835,0.003-15.999-7.162-15.999-16.001c0-8.836,7.164-16.002,15.996-15.998
		c8.836-0.003,16.004,7.162,16.004,15.998C-1491.002,1585.841-1498.166,1593.005-1507.001,1593.002z"/>
	<path fill="#00FF00" d="M-1507.004,1688.999c-8.831,0.001-15.996-7.164-15.997-16.001c0-8.834,7.165-15.997,16.001-15.999
		c8.833,0,15.998,7.165,16,16C-1491.004,1681.835-1498.166,1688.999-1507.004,1688.999z"/>
	<rect x="-1523" y="1577.003" fill="#00FF00" width="32" height="95.995"/>
	<path fill="#00FF00" d="M-1442.998,1593.002c-8.835,0.003-15.999-7.162-15.999-16.001c0-8.836,7.164-16.002,15.996-15.998
		c8.836-0.003,16.004,7.162,16.004,15.998C-1426.999,1585.841-1434.163,1593.005-1442.998,1593.002z"/>
	<path fill="#00FF00" d="M-1443.001,1688.999c-8.831,0.001-15.996-7.164-15.997-16.001c0-8.834,7.165-15.997,16.001-15.999
		c8.833,0,15.998,7.165,16,16C-1427.001,1681.835-1434.163,1688.999-1443.001,1688.999z"/>
	<rect x="-1458.997" y="1577.003" fill="#00FF00" width="32" height="95.995"/>
</g>
</svg>
