<?xml version="1.0" encoding="utf-8"?>
<!-- Generator: Adobe Illustrator 14.0.0, SVG Export Plug-In . SVG Version: 6.00 Build 43363)  -->
<!DOCTYPE svg PUBLIC "-//W3C//DTD SVG 1.1//EN" "http://www.w3.org/Graphics/SVG/1.1/DTD/svg11.dtd">
<svg version="1.1" xmlns="http://www.w3.org/2000/svg" xmlns:xlink="http://www.w3.org/1999/xlink" x="0px" y="0px" width="256px"
	 height="256px" viewBox="-1603 1497 256 256" enable-background="new -1603 1497 256 256" xml:space="preserve">
<g id="Hilfslinien">
</g>
<g id="back">
	<rect x="-1603" y="1497" fill="#FF00FF" width="256" height="256"/>
	<circle fill="#FFFF00" cx="-1475" cy="1625" r="112"/>
</g>
<g id="front">
	<circle fill="#00FF00" cx="-1418.431" cy="1681.568" r="16"/>
	<path fill="#00FF00" d="M-1542.881,1557.116c6.245-6.245,16.378-6.246,22.626,0.003c6.247,6.246,6.246,16.379,0,22.626
		s-16.38,6.247-22.627,0.001C-1549.129,1573.496-1549.13,1563.365-1542.881,1557.116z"/>
	<path fill="#00FF00" d="M-1429.745,1579.746c-6.248-6.246-6.249-16.378,0-22.629c6.25-6.248,16.382-6.247,22.625,0
		c6.25,6.246,6.252,16.379,0.003,22.628C-1413.368,1585.994-1423.499,1585.994-1429.745,1579.746z"/>
	<path fill="#00FF00" d="M-1542.884,1692.881c-6.245-6.245-6.246-16.377,0.002-22.627c6.247-6.246,16.379-6.245,22.627,0.001
		c6.246,6.247,6.246,16.38,0,22.628C-1526.505,1699.129-1536.635,1699.13-1542.884,1692.881z"/>
	
		<rect x="-1491" y="1545.001" transform="matrix(0.7071 -0.7071 0.7071 0.7071 -1581.0667 -567.0308)" fill="#00FF00" width="31.999" height="159.999"/>
	
		<rect x="-1555" y="1609.001" transform="matrix(0.7071 -0.7071 0.7071 0.7071 -1581.0667 -567.0308)" fill="#00FF00" width="159.999" height="31.999"/>
</g>
</svg>
