<?xml version="1.0" encoding="utf-8"?>
<!-- Generator: Adobe Illustrator 14.0.0, SVG Export Plug-In . SVG Version: 6.00 Build 43363)  -->
<!DOCTYPE svg PUBLIC "-//W3C//DTD SVG 1.1//EN" "http://www.w3.org/Graphics/SVG/1.1/DTD/svg11.dtd">
<svg version="1.1" xmlns="http://www.w3.org/2000/svg" xmlns:xlink="http://www.w3.org/1999/xlink" x="0px" y="0px" width="256px"
	 height="256px" viewBox="-1603 1497 256 256" enable-background="new -1603 1497 256 256" xml:space="preserve">
<g id="Hilfslinien">
</g>
<g id="back">
	<rect x="-1603" y="1497" fill="#FF00FF" width="256" height="256"/>
	<circle fill="#FFFF00" cx="-1475" cy="1625" r="112"/>
</g>
<g id="front">
	<path fill="#00FF00" d="M-1553.298,1584.149l-0.013,0.006l64,128l0.012-0.006c2.628,5.244,8.037,8.853,14.296,8.851
		c6.263,0.002,11.674-3.606,14.302-8.851l0.012,0.006l64-128l-0.011-0.006c1.079-2.153,1.701-4.574,1.7-7.146
		c0.002-8.835-7.161-16.004-16-16.004h0h-128c-8.837,0.002-16.002,7.166-16.001,16.001
		C-1555,1579.573-1554.378,1581.995-1553.298,1584.149z"/>
</g>
</svg>
