<?xml version="1.0" encoding="utf-8"?>
<!-- Generator: Adobe Illustrator 14.0.0, SVG Export Plug-In . SVG Version: 6.00 Build 43363)  -->
<!DOCTYPE svg PUBLIC "-//W3C//DTD SVG 1.1//EN" "http://www.w3.org/Graphics/SVG/1.1/DTD/svg11.dtd">
<svg version="1.1" xmlns="http://www.w3.org/2000/svg" xmlns:xlink="http://www.w3.org/1999/xlink" x="0px" y="0px" width="256px"
	 height="256px" viewBox="-1603 1497 256 256" enable-background="new -1603 1497 256 256" xml:space="preserve">
<g id="Hilfslinien">
</g>
<g id="back">
	<rect x="-1603" y="1497" fill="#FF00FF" width="256" height="256"/>
	<circle fill="#FFFF00" cx="-1475" cy="1625" r="112"/>
</g>
<g id="front">
	<path fill="#00FF00" d="M-1475.003,1689.001c5.824,0.002,10.909-3.122,13.709-7.775l0.014,0.009l48-80l-0.013-0.008
		c1.446-2.405,2.294-5.211,2.293-8.221c0.002-8.835-7.16-16.004-15.999-16.004H-1427l0,0h-96c-8.836,0.002-16.001,7.166-16,16.001
		c0,3.011,0.848,5.817,2.295,8.222l-0.015,0.01l48,79.998l0.014-0.008C-1485.907,1685.879-1480.824,1689.003-1475.003,1689.001z"/>
</g>
<g id="Ebene_4">
</g>
</svg>
