<?xml version="1.0" encoding="utf-8"?>
<!-- Generator: Adobe Illustrator 14.0.0, SVG Export Plug-In . SVG Version: 6.00 Build 43363)  -->
<!DOCTYPE svg PUBLIC "-//W3C//DTD SVG 1.1//EN" "http://www.w3.org/Graphics/SVG/1.1/DTD/svg11.dtd">
<svg version="1.1" xmlns="http://www.w3.org/2000/svg" xmlns:xlink="http://www.w3.org/1999/xlink" x="0px" y="0px" width="256px"
	 height="256px" viewBox="-1603 1497 256 256" enable-background="new -1603 1497 256 256" xml:space="preserve">
<g id="Hilfslinien">
</g>
<g id="back">
	<rect x="-1603" y="1497" fill="#FF00FF" width="256" height="256"/>
	<circle fill="#FFFF00" cx="-1475" cy="1625" r="112"/>
</g>
<g id="front">
	<path fill="#00FF00" d="M-1474.998,1720.998c8.832,0.004,15.998-7.161,15.998-16c0.001-8.834-7.166-15.998-16-15.999
		c-8.834,0.001-15.999,7.166-15.999,15.999C-1490.997,1713.836-1483.834,1721.002-1474.998,1720.998z"/>
	<rect x="-1490.999" y="1545.001" fill="#00FF00" width="31.999" height="159.998"/>
	<g>
		<path fill="#00FF00" d="M-1539,1624.999c0.002-8.833-7.161-15.998-16-15.998c-8.839,0.001-16.001,7.167-15.999,15.996
			c-0.002,8.835,7.161,16.004,15.999,16.003C-1546.161,1640.998-1538.998,1633.836-1539,1624.999z"/>
		<path fill="#00FF00" d="M-1378.998,1624.999c-0.001-8.833-7.167-15.999-16.002-15.999c-8.833,0-15.998,7.165-16,15.999
			c0.002,8.837,7.167,15.999,16.001,16.001C-1386.162,1640.998-1378.997,1633.834-1378.998,1624.999z"/>
		<path fill="#00FF00" d="M-1474.998,1561.001c8.834,0.001,15.998-7.162,15.999-16.003c-0.002-8.836-7.168-16-15.997-15.997
			c-8.835-0.003-16.003,7.161-16.003,15.999C-1490.997,1553.838-1483.834,1561.001-1474.998,1561.001z"/>
		<line fill="none" stroke="#00FF00" stroke-width="32" x1="-1394.999" y1="1625" x2="-1474.998" y2="1545"/>
		<line fill="none" stroke="#00FF00" stroke-width="32" x1="-1474.998" y1="1545" x2="-1554.999" y2="1625"/>
	</g>
</g>
</svg>
