<?xml version="1.0" encoding="utf-8"?>
<!-- Generator: Adobe Illustrator 14.0.0, SVG Export Plug-In . SVG Version: 6.00 Build 43363)  -->
<!DOCTYPE svg PUBLIC "-//W3C//DTD SVG 1.1//EN" "http://www.w3.org/Graphics/SVG/1.1/DTD/svg11.dtd">
<svg version="1.1" xmlns="http://www.w3.org/2000/svg" xmlns:xlink="http://www.w3.org/1999/xlink" x="0px" y="0px" width="256px"
	 height="256px" viewBox="-1603 1497 256 256" enable-background="new -1603 1497 256 256" xml:space="preserve">
<g id="Hilfslinien">
</g>
<g id="back">
	<rect x="-1603" y="1497" fill="#FF00FF" width="256" height="256"/>
	<circle fill="#FFFF00" cx="-1475" cy="1625" r="112"/>
</g>
<g id="front">
	<path fill="#00FF00" d="M-1506.998,1624.997c-0.002,5.824,3.122,10.909,7.775,13.709l-0.008,0.014l80,48l0.008-0.013
		c2.405,1.446,5.211,2.294,8.22,2.293c8.835,0.002,16.004-7.16,16.004-15.999V1673l0,0v-96c-0.002-8.836-7.166-16.001-16.001-16
		c-3.01,0-5.817,0.848-8.222,2.295l-0.009-0.015l-79.999,48l0.008,0.014C-1503.875,1614.093-1507,1619.176-1506.998,1624.997z"/>
</g>
<g id="Ebene_4">
	<path fill="#00FF00" d="M-1539.003,1656.998c8.835-0.003,15.999,7.162,15.999,16.001c0,8.836-7.164,16.002-15.996,15.998
		c-8.836,0.003-16.004-7.162-16.004-15.998C-1555.002,1664.159-1547.838,1656.995-1539.003,1656.998z"/>
	<path fill="#00FF00" d="M-1539,1561.001c8.831-0.001,15.996,7.164,15.997,16.001c0,8.834-7.165,15.997-16.001,15.999
		c-8.833,0-15.998-7.165-16-16C-1555,1568.165-1547.838,1561.001-1539,1561.001z"/>
	<rect x="-1555.004" y="1577.001" fill="#00FF00" width="32" height="95.995"/>
</g>
</svg>
