<?xml version="1.0" encoding="utf-8"?>
<!-- Generator: Adobe Illustrator 14.0.0, SVG Export Plug-In . SVG Version: 6.00 Build 43363)  -->
<!DOCTYPE svg PUBLIC "-//W3C//DTD SVG 1.1//EN" "http://www.w3.org/Graphics/SVG/1.1/DTD/svg11.dtd">
<svg version="1.1" xmlns="http://www.w3.org/2000/svg" xmlns:xlink="http://www.w3.org/1999/xlink" x="0px" y="0px" width="256px"
	 height="256px" viewBox="-1603 1497 256 256" enable-background="new -1603 1497 256 256" xml:space="preserve">
<g id="Hilfslinien">
</g>
<g id="back">
	<rect x="-1603" y="1497" fill="#FF00FF" width="256" height="256"/>
	<circle fill="#FFFF00" cx="-1475" cy="1625" r="112"/>
</g>
<g id="front">
	<g>
		<path fill="#00FF00" d="M-1410.999,1593c8.834,0.001,15.998-7.162,15.999-16.003c-0.002-8.836-7.168-16-15.997-15.997
			c-8.835-0.003-16.003,7.161-16.003,15.999C-1426.998,1585.837-1419.835,1593-1410.999,1593z"/>
		<path fill="#00FF00" d="M-1490.999,1689c8.834,0.001,15.998-7.162,15.999-16.003c-0.002-8.836-7.168-16-15.997-15.997
			c-8.835-0.003-16.003,7.161-16.003,15.999C-1506.998,1681.837-1499.835,1689-1490.999,1689z"/>
		<path fill="#00FF00" d="M-1538.999,1641c8.834,0.001,15.998-7.162,15.999-16.003c-0.002-8.836-7.168-16-15.997-15.997
			c-8.835-0.003-16.003,7.161-16.003,15.999C-1554.998,1633.837-1547.835,1641-1538.999,1641z"/>
		<line fill="none" stroke="#00FF00" stroke-width="32" x1="-1539" y1="1625" x2="-1491" y2="1673"/>
		<line fill="none" stroke="#00FF00" stroke-width="32" x1="-1491" y1="1673" x2="-1411" y2="1577"/>
	</g>
</g>
</svg>
