<?xml version="1.0" encoding="utf-8"?>
<!-- Generator: Adobe Illustrator 14.0.0, SVG Export Plug-In . SVG Version: 6.00 Build 43363)  -->
<!DOCTYPE svg PUBLIC "-//W3C//DTD SVG 1.1//EN" "http://www.w3.org/Graphics/SVG/1.1/DTD/svg11.dtd">
<svg version="1.1" xmlns="http://www.w3.org/2000/svg" xmlns:xlink="http://www.w3.org/1999/xlink" x="0px" y="0px" width="256px"
	 height="256px" viewBox="-1603 1497 256 256" enable-background="new -1603 1497 256 256" xml:space="preserve">
<g id="Hilfslinien">
</g>
<g id="back">
	<rect x="-1603" y="1497" fill="#FF00FF" width="256" height="256"/>
	<circle fill="#FFFF00" cx="-1475" cy="1625" r="112"/>
</g>
<g id="front">
	<path fill="#00FF00" d="M-1443.002,1625.003c0.002-5.824-3.122-10.909-7.775-13.709l0.008-0.014l-80-48l-0.008,0.013
		c-2.405-1.446-5.211-2.294-8.22-2.293c-8.835-0.002-16.004,7.16-16.004,15.999V1577l0,0v96c0.002,8.836,7.166,16.001,16.001,16
		c3.01,0,5.817-0.848,8.222-2.295l0.009,0.015l79.999-48l-0.008-0.014C-1446.125,1635.907-1443,1630.824-1443.002,1625.003z"/>
</g>
<g id="Ebene_4">
	<path fill="#00FF00" d="M-1410.997,1593.002c-8.835,0.003-15.999-7.162-15.999-16.001c0-8.836,7.164-16.002,15.996-15.998
		c8.836-0.003,16.004,7.162,16.004,15.998C-1394.998,1585.841-1402.162,1593.005-1410.997,1593.002z"/>
	<path fill="#00FF00" d="M-1411,1688.999c-8.831,0.001-15.996-7.164-15.997-16.001c0-8.834,7.165-15.997,16.001-15.999
		c8.833,0,15.998,7.165,16,16C-1395,1681.835-1402.162,1688.999-1411,1688.999z"/>
	<rect x="-1426.996" y="1577.004" fill="#00FF00" width="32" height="95.995"/>
</g>
</svg>
