<?xml version="1.0" encoding="utf-8"?>
<!-- Generator: Adobe Illustrator 14.0.0, SVG Export Plug-In . SVG Version: 6.00 Build 43363)  -->
<!DOCTYPE svg PUBLIC "-//W3C//DTD SVG 1.1//EN" "http://www.w3.org/Graphics/SVG/1.1/DTD/svg11.dtd">
<svg version="1.1" xmlns="http://www.w3.org/2000/svg" xmlns:xlink="http://www.w3.org/1999/xlink" x="0px" y="0px" width="256px"
	 height="256px" viewBox="-1603 1497 256 256" enable-background="new -1603 1497 256 256" xml:space="preserve">
<g id="Hilfslinien">
</g>
<g id="back">
	<rect x="-1603" y="1497" fill="#FF00FF" width="256" height="256"/>
</g>
<g id="front">
	<circle fill="#00FF00" cx="-1407.118" cy="1557.117" r="16"/>
	<path fill="#00FF00" d="M-1554.198,1704.195c-6.245-6.245-6.246-16.378,0.002-22.627c6.247-6.246,16.379-6.246,22.627,0.001
		c6.246,6.247,6.246,16.38,0,22.628C-1537.818,1710.443-1547.949,1710.444-1554.198,1704.195z"/>
	
		<rect x="-1571.001" y="1609" transform="matrix(0.7071 -0.7071 0.7071 0.7071 -1581.0663 -567.0308)" fill="#00FF00" width="192.002" height="32"/>
	<path fill="#00FF00" d="M-1531.568,1568.432c-6.246,6.249-16.378,6.249-22.629-0.001c-6.247-6.249-6.247-16.382,0-22.625
		c6.245-6.249,16.38-6.251,22.628-0.003C-1525.319,1552.055-1525.319,1562.186-1531.568,1568.432z"/>
	<path fill="#00FF00" d="M-1395.806,1704.197c-6.244,6.246-16.378,6.247-22.626-0.001c-6.247-6.247-6.245-16.378,0.001-22.628
		c6.246-6.246,16.379-6.246,22.627,0C-1389.558,1687.818-1389.557,1697.949-1395.806,1704.197z"/>
	
		<rect x="-1571.001" y="1609" transform="matrix(-0.7071 -0.7071 0.7071 -0.7071 -3667.0315 1731.0735)" fill="#00FF00" width="192.001" height="32.001"/>
</g>
</svg>
