<?xml version="1.0" encoding="utf-8"?>
<!-- Generator: Adobe Illustrator 14.0.0, SVG Export Plug-In . SVG Version: 6.00 Build 43363)  -->
<!DOCTYPE svg PUBLIC "-//W3C//DTD SVG 1.1//EN" "http://www.w3.org/Graphics/SVG/1.1/DTD/svg11.dtd">
<svg version="1.1" xmlns="http://www.w3.org/2000/svg" xmlns:xlink="http://www.w3.org/1999/xlink" x="0px" y="0px" width="256px"
	 height="256px" viewBox="-1603 1497 256 256" enable-background="new -1603 1497 256 256" xml:space="preserve">
<g id="Hilfslinien">
</g>
<g id="back">
	<rect x="-1603" y="1497" fill="#FF00FF" width="256" height="256"/>
</g>
<g id="front">
	<path fill="#00FF00" d="M-1379.001,1545.012c0-0.003,0-0.007,0-0.01c-0.002-8.837-7.167-15.999-16-16.001
		c-4.418,0.001-8.418,1.792-11.313,4.688l-0.001-0.001l-159.998,160.003l0,0.001c-2.896,2.896-4.688,6.896-4.687,11.313
		c0.001,8.833,7.167,15.999,16,15.999l0,0h159.998l0,0c0,0,0,0,0,0c8.84,0,16.002-7.167,16-15.996c0-0.003,0-0.007,0-0.01V1545.012z
		"/>
</g>
</svg>
