<?xml version="1.0" encoding="utf-8"?>
<!-- Generator: Adobe Illustrator 14.0.0, SVG Export Plug-In . SVG Version: 6.00 Build 43363)  -->
<!DOCTYPE svg PUBLIC "-//W3C//DTD SVG 1.1//EN" "http://www.w3.org/Graphics/SVG/1.1/DTD/svg11.dtd">
<svg version="1.1" xmlns="http://www.w3.org/2000/svg" xmlns:xlink="http://www.w3.org/1999/xlink" x="0px" y="0px" width="256px"
	 height="256px" viewBox="-1603 1497 256 256" enable-background="new -1603 1497 256 256" xml:space="preserve">
<g id="Hilfslinien">
</g>
<g id="back">
	<rect x="-1603" y="1497" fill="#FF00FF" width="256" height="256"/>
</g>
<g id="front">
	<path fill="#00FF00" d="M-1364.692,1552.675l-0.209-0.114c3.25-6.058,2.328-13.765-2.782-18.877
		c-3.125-3.122-7.221-4.684-11.317-4.684l0,0h-192v0.001c-4.097-0.001-8.192,1.561-11.315,4.687
		c-5.138,5.137-6.04,12.9-2.726,18.973l-0.005,0.003l95.527,175.022c0.771,1.674,1.827,3.248,3.207,4.627
		c6.252,6.251,16.383,6.247,22.623,0.004c1.106-1.105,2.006-2.336,2.721-3.642l0.006,0.003l0.095-0.174
		c0.016-0.03,0.034-0.061,0.05-0.092L-1364.692,1552.675z"/>
</g>
</svg>
