<?xml version="1.0" encoding="utf-8"?>
<!-- Generator: Adobe Illustrator 14.0.0, SVG Export Plug-In . SVG Version: 6.00 Build 43363)  -->
<!DOCTYPE svg PUBLIC "-//W3C//DTD SVG 1.1//EN" "http://www.w3.org/Graphics/SVG/1.1/DTD/svg11.dtd">
<svg version="1.1" xmlns="http://www.w3.org/2000/svg" xmlns:xlink="http://www.w3.org/1999/xlink" x="0px" y="0px" width="256px"
	 height="256px" viewBox="-1603 1497 256 256" enable-background="new -1603 1497 256 256" xml:space="preserve">
<g id="Hilfslinien">
</g>
<g id="back">
	<rect x="-1603" y="1497" fill="#FF00FF" width="256" height="256"/>
</g>
<g id="front">
	<path fill="#00FF00" d="M-1522.994,1624.997c-0.002,6.263,3.606,11.674,8.851,14.302l-0.006,0.012l128,64l0.005-0.011
		c2.153,1.079,4.575,1.701,7.146,1.7c8.835,0.002,16.004-7.161,16.004-16v-128c-0.002-8.837-7.166-16.002-16.001-16.001
		c-2.572,0-4.995,0.623-7.148,1.702l-0.006-0.012l-128,64l0.006,0.012C-1519.388,1613.329-1522.996,1618.737-1522.994,1624.997z"/>
	<path fill="#00FF00" d="M-1571.001,1672.999c8.835-0.003,15.999,7.162,15.999,16.001c0,8.836-7.164,16.002-15.996,15.998
		c-8.836,0.003-16.004-7.162-16.004-15.998C-1587,1680.16-1579.836,1672.996-1571.001,1672.999z"/>
	<path fill="#00FF00" d="M-1570.998,1545c8.831-0.001,15.996,7.164,15.997,16.001c0,8.834-7.165,15.997-16.001,15.999
		c-8.833,0-15.998-7.165-16-16C-1586.998,1552.164-1579.836,1545-1570.998,1545z"/>
	<rect x="-1587.002" y="1561" fill="#00FF00" width="32" height="127.998"/>
</g>
</svg>
