<?xml version="1.0" encoding="utf-8"?>
<!-- Generator: Adobe Illustrator 14.0.0, SVG Export Plug-In . SVG Version: 6.00 Build 43363)  -->
<!DOCTYPE svg PUBLIC "-//W3C//DTD SVG 1.1//EN" "http://www.w3.org/Graphics/SVG/1.1/DTD/svg11.dtd">
<svg version="1.1" xmlns="http://www.w3.org/2000/svg" xmlns:xlink="http://www.w3.org/1999/xlink" x="0px" y="0px" width="256px"
	 height="256px" viewBox="-1603 1497 256 256" enable-background="new -1603 1497 256 256" xml:space="preserve">
<g id="Hilfslinien">
</g>
<g id="back">
	<rect x="-1603" y="1497" fill="#FF00FF" width="256" height="256"/>
</g>
<g id="front">
	<path fill="#00FF00" d="M-1427.002,1625.003c0.002-6.263-3.606-11.674-8.851-14.302l0.006-0.012l-128-64l-0.005,0.011
		c-2.153-1.079-4.575-1.701-7.146-1.7c-8.835-0.002-16.004,7.161-16.004,16v128c0.002,8.837,7.166,16.002,16.001,16.001
		c2.572,0,4.995-0.623,7.148-1.702l0.006,0.012l128-64l-0.006-0.012C-1430.608,1636.671-1427,1631.263-1427.002,1625.003z"/>
	<path fill="#00FF00" d="M-1378.995,1577.001c-8.835,0.003-15.999-7.162-15.999-16.001c0-8.836,7.164-16.002,15.996-15.998
		c8.836-0.003,16.004,7.162,16.004,15.998C-1362.996,1569.84-1370.16,1577.004-1378.995,1577.001z"/>
	<path fill="#00FF00" d="M-1378.998,1705c-8.831,0.001-15.996-7.164-15.997-16.001c0-8.834,7.165-15.997,16.001-15.999
		c8.833,0,15.998,7.165,16,16C-1362.998,1697.836-1370.16,1705-1378.998,1705z"/>
	<rect x="-1394.994" y="1561.002" fill="#00FF00" width="32" height="127.998"/>
</g>
</svg>
