<?xml version="1.0" encoding="utf-8"?>
<!-- Generator: Adobe Illustrator 14.0.0, SVG Export Plug-In . SVG Version: 6.00 Build 43363)  -->
<!DOCTYPE svg PUBLIC "-//W3C//DTD SVG 1.1//EN" "http://www.w3.org/Graphics/SVG/1.1/DTD/svg11.dtd">
<svg version="1.1" xmlns="http://www.w3.org/2000/svg" xmlns:xlink="http://www.w3.org/1999/xlink" x="0px" y="0px" width="256px"
	 height="256px" viewBox="-1603 1497 256 256" enable-background="new -1603 1497 256 256" xml:space="preserve">
<g id="Hilfslinien">
</g>
<g id="back">
	<rect x="-1603" y="1497" fill="#FF00FF" width="256" height="256"/>
</g>
<g id="front">
	<path fill="#00FF00" d="M-1362.999,1625c0.002-8.832-7.162-15.996-16-15.998c-8.834,0.002-15.998,7.166-16,16.002
		c0,8.832,7.166,15.998,16,16C-1370.161,1641.002-1362.997,1633.838-1362.999,1625z"/>
	<g>
		<path fill="#00FF00" d="M-1474.999,1705.004c-8.836-0.004-16,7.16-16,16c0.002,8.836,7.166,16.002,15.996,15.998
			c8.836,0.004,16.004-7.162,16.004-15.998C-1459,1712.164-1466.163,1705-1474.999,1705.004z"/>
		<path fill="#00FF00" d="M-1475,1513c-8.832,0-15.998,7.166-15.998,16.002c0,8.834,7.164,15.998,15.998,16
			c8.836-0.002,16-7.166,16.002-16C-1459,1520.164-1466.165,1513-1475,1513z"/>
		<path fill="#00FF00" d="M-1555,1625.002c0.002-8.834-7.162-15.998-16.002-15.998c-8.836,0-16,7.164-15.998,15.996
			c-0.002,8.836,7.162,16.004,16,16.002C-1562.163,1641.002-1555,1633.838-1555,1625.002z"/>
		<line fill="none" stroke="#00FF00" stroke-width="32" x1="-1474.999" y1="1529.002" x2="-1570.999" y2="1625.002"/>
		<line fill="none" stroke="#00FF00" stroke-width="32" x1="-1570.999" y1="1625.002" x2="-1474.999" y2="1721.004"/>
	</g>
	<line fill="none" stroke="#00FF00" stroke-width="32" x1="-1378.999" y1="1625.002" x2="-1570.999" y2="1625.002"/>
</g>
</svg>
