<?xml version="1.0" encoding="utf-8"?>
<!-- Generator: Adobe Illustrator 14.0.0, SVG Export Plug-In . SVG Version: 6.00 Build 43363)  -->
<!DOCTYPE svg PUBLIC "-//W3C//DTD SVG 1.1//EN" "http://www.w3.org/Graphics/SVG/1.1/DTD/svg11.dtd">
<svg version="1.1" xmlns="http://www.w3.org/2000/svg" xmlns:xlink="http://www.w3.org/1999/xlink" x="0px" y="0px" width="256px"
	 height="256px" viewBox="-1603 1497 256 256" enable-background="new -1603 1497 256 256" xml:space="preserve">
<g id="Ebene_2" display="none">
	<g display="inline">
		<rect x="-1603" y="1497" opacity="0.5" fill="#8E3939" width="16" height="16"/>
		<rect x="-1587" y="1513" opacity="0.5" fill="#8E3939" width="16" height="16"/>
		<rect x="-1571" y="1529" opacity="0.5" fill="#8E3939" width="16" height="16"/>
		<rect x="-1555" y="1545" opacity="0.5" fill="#8E3939" width="16" height="16"/>
		<rect x="-1539" y="1561" opacity="0.5" fill="#8E3939" width="16" height="16"/>
		<rect x="-1523" y="1577" opacity="0.5" fill="#8E3939" width="16" height="16"/>
		<rect x="-1507" y="1593" opacity="0.5" fill="#8E3939" width="16" height="16"/>
		<rect x="-1491" y="1609" opacity="0.5" fill="#8E3939" width="16" height="16"/>
		<rect x="-1475" y="1625" opacity="0.5" fill="#8E3939" width="16" height="16"/>
		<rect x="-1459" y="1641" opacity="0.5" fill="#8E3939" width="16" height="16"/>
		<rect x="-1443" y="1657" opacity="0.5" fill="#8E3939" width="16" height="16"/>
		<rect x="-1427" y="1673" opacity="0.5" fill="#8E3939" width="16" height="16"/>
		<rect x="-1411" y="1689" opacity="0.5" fill="#8E3939" width="16" height="16"/>
		<rect x="-1395" y="1705" opacity="0.5" fill="#8E3939" width="16" height="16"/>
		<rect x="-1379" y="1721" opacity="0.5" fill="#8E3939" width="16" height="16"/>
		<rect x="-1363" y="1737" opacity="0.5" fill="#8E3939" width="16" height="16"/>
	</g>
</g>
<g id="Hilfslinien">
	<rect x="-1603" y="1402.157" fill="none" width="256.847" height="80.226"/>
	<text transform="matrix(1 0 0 1 -1603 1410.6768)"><tspan x="0" y="0" font-family="'MyriadPro-Regular'" font-size="12">16 =</tspan><tspan x="22.007" y="0" font-family="'MyriadPro-Regular'" font-size="12" letter-spacing="11">	</tspan><tspan x="36" y="0" font-family="'MyriadPro-Regular'" font-size="12">1</tspan><tspan x="42.156" y="0" font-family="'MyriadPro-Regular'" font-size="12" letter-spacing="27">	</tspan><tspan x="72" y="0" font-family="'MyriadPro-Regular'" font-size="12">2</tspan><tspan x="78.156" y="0" font-family="'MyriadPro-Regular'" font-size="12" letter-spacing="27">	</tspan><tspan x="108" y="0" font-family="'MyriadPro-Regular'" font-size="12">4</tspan><tspan x="0" y="14.4" font-family="'MyriadPro-Regular'" font-size="12">32 = </tspan><tspan x="24.551" y="14.4" font-family="'MyriadPro-Regular'" font-size="12" letter-spacing="8">	</tspan><tspan x="36" y="14.4" font-family="'MyriadPro-Regular'" font-size="12">2</tspan><tspan x="42.156" y="14.4" font-family="'MyriadPro-Regular'" font-size="12" letter-spacing="27">	</tspan><tspan x="72" y="14.4" font-family="'MyriadPro-Regular'" font-size="12">4</tspan><tspan x="78.156" y="14.4" font-family="'MyriadPro-Regular'" font-size="12" letter-spacing="27">	</tspan><tspan x="108" y="14.4" font-family="'MyriadPro-Regular'" font-size="12">8</tspan><tspan x="0" y="28.801" font-family="'MyriadPro-Regular'" font-size="12">64 = </tspan><tspan x="24.551" y="28.801" font-family="'MyriadPro-Regular'" font-size="12" letter-spacing="8">	</tspan><tspan x="36" y="28.801" font-family="'MyriadPro-Regular'" font-size="12">4</tspan><tspan x="42.156" y="28.801" font-family="'MyriadPro-Regular'" font-size="12" letter-spacing="27">	</tspan><tspan x="72" y="28.801" font-family="'MyriadPro-Regular'" font-size="12">8</tspan><tspan x="78.156" y="28.801" font-family="'MyriadPro-Regular'" font-size="12" letter-spacing="27">	</tspan><tspan x="108" y="28.801" font-family="'MyriadPro-Regular'" font-size="12">16</tspan><tspan x="0" y="43.2" font-family="'MyriadPro-Regular'" font-size="12">128 = </tspan><tspan x="30.707" y="43.2" font-family="'MyriadPro-Regular'" font-size="12" letter-spacing="2">	</tspan><tspan x="36" y="43.2" font-family="'MyriadPro-Regular'" font-size="12">8</tspan><tspan x="42.156" y="43.2" font-family="'MyriadPro-Regular'" font-size="12" letter-spacing="27">	</tspan><tspan x="72" y="43.2" font-family="'MyriadPro-Regular'" font-size="12">16</tspan><tspan x="84.312" y="43.2" font-family="'MyriadPro-Regular'" font-size="12" letter-spacing="21">	</tspan><tspan x="108" y="43.2" font-family="'MyriadPro-Regular'" font-size="12">32</tspan><tspan x="120.311" y="43.2" font-family="'MyriadPro-Regular'" font-size="12" letter-spacing="21">	</tspan><tspan x="0" y="57.601" font-family="'MyriadPro-Regular'" font-size="12">256 = </tspan><tspan x="30.707" y="57.601" font-family="'MyriadPro-Regular'" font-size="12" letter-spacing="2">	</tspan><tspan x="36" y="57.601" font-family="'MyriadPro-Regular'" font-size="12">16</tspan><tspan x="48.312" y="57.601" font-family="'MyriadPro-Regular'" font-size="12" letter-spacing="21">	</tspan><tspan x="72" y="57.601" font-family="'MyriadPro-Regular'" font-size="12">32</tspan><tspan x="84.311" y="57.601" font-family="'MyriadPro-Regular'" font-size="12" letter-spacing="21">	</tspan><tspan x="108" y="57.601" font-family="'MyriadPro-Regular'" font-size="12">64</tspan></text>
</g>
<g id="plus_x2F_minus_ohne_Rand">
	<rect x="-1603" y="1497" fill="#FF00FF" width="256" height="256"/>
	<circle fill="#FFFF00" cx="-1475" cy="1625" r="112"/>
</g>
<g id="plus_x2F_minus_mit_Rand_16_px">
	<path fill="#00FF00" d="M-1475,1513c-19.691,0-39.061,5.185-56.014,14.993l0.009,0.016c-3.822,2.209-5.13,7.1-2.923,10.923
		c2.209,3.826,7.104,5.138,10.929,2.93c0.075-0.043,0.142-0.094,0.214-0.139c14.47-8.322,30.987-12.723,47.786-12.723
		c52.934,0,96,43.064,96,95.998c0,52.936-43.065,96.002-96,96.002c-52.935,0-96-43.066-96-96.002c0-16.799,4.4-33.313,12.719-47.78
		c0.046-0.074,0.098-0.143,0.142-0.219c2.208-3.825,0.897-8.719-2.929-10.929c-3.824-2.209-8.713-0.898-10.923,2.921l-0.015-0.009
		c-9.809,16.952-14.994,36.322-14.994,56.016c0,61.758,50.243,112.002,112,112.002c61.757,0,112-50.244,112-112.002
		C-1363,1563.242-1413.243,1513-1475,1513z"/>
	<path fill="#00FF00" d="M-1411,1625c0-4.418-3.582-8-8-8l0,0h-112l0,0c-4.418,0-8,3.582-8,8s3.582,8,8,8l0,0h112l0,0
		C-1414.582,1633-1411,1629.418-1411,1625z"/>
</g>
<g id="Ebene_5" display="none">
	<line display="inline" fill="none" stroke="#E3004F" stroke-width="0.25" x1="-1628.6" y1="1471.4" x2="-1321.399" y2="1778.6"/>
	<line display="inline" fill="none" stroke="#E3004F" stroke-width="0.25" x1="-1628.599" y1="1778.6" x2="-1321.4" y2="1471.399"/>
	
		<line display="inline" fill="none" stroke="#55BDC4" stroke-width="0.25" x1="-1663.121" y1="1516.389" x2="-1286.878" y2="1733.611"/>
	
		<line display="inline" fill="none" stroke="#55BDC4" stroke-width="0.25" x1="-1583.611" y1="1813.121" x2="-1366.388" y2="1436.879"/>
	
		<line display="inline" fill="none" stroke="#55BDC4" stroke-width="0.25" x1="-1684.821" y1="1568.779" x2="-1265.178" y2="1681.221"/>
	
		<line display="inline" fill="none" stroke="#55BDC4" stroke-width="0.25" x1="-1531.22" y1="1834.821" x2="-1418.778" y2="1415.178"/>
	<line display="inline" fill="none" stroke="#E3004F" stroke-width="0.25" x1="-1692.222" y1="1625" x2="-1257.775" y2="1624.999"/>
	<line display="inline" fill="none" stroke="#E3004F" stroke-width="0.25" x1="-1474.999" y1="1842.223" x2="-1475" y2="1407.777"/>
	
		<line display="inline" fill="none" stroke="#55BDC4" stroke-width="0.25" x1="-1684.82" y1="1681.221" x2="-1265.178" y2="1568.777"/>
	
		<line display="inline" fill="none" stroke="#55BDC4" stroke-width="0.25" x1="-1418.777" y1="1834.82" x2="-1531.22" y2="1415.178"/>
	
		<line display="inline" fill="none" stroke="#55BDC4" stroke-width="0.25" x1="-1663.119" y1="1733.61" x2="-1286.878" y2="1516.387"/>
	
		<line display="inline" fill="none" stroke="#55BDC4" stroke-width="0.25" x1="-1366.386" y1="1813.119" x2="-1583.611" y2="1436.879"/>
</g>
</svg>
