<?xml version="1.0" encoding="utf-8"?>
<!-- Generator: Adobe Illustrator 14.0.0, SVG Export Plug-In . SVG Version: 6.00 Build 43363)  -->
<!DOCTYPE svg PUBLIC "-//W3C//DTD SVG 1.1//EN" "http://www.w3.org/Graphics/SVG/1.1/DTD/svg11.dtd">
<svg version="1.1" id="Ebene_1" xmlns="http://www.w3.org/2000/svg" xmlns:xlink="http://www.w3.org/1999/xlink" x="0px" y="0px"
	 width="160px" height="160px" viewBox="0 0 160 160" enable-background="new 0 0 160 160" xml:space="preserve">
<rect y="-0.001" fill="#FF00FF" width="160" height="159.995"/>
<path fill="#FFFF00" d="M150.008,15.01c0-0.003,0.001-0.006,0.001-0.01c0-2.761-2.238-5-5-5h-0.001v0H15v0c-2.761,0-5,2.239-5,5l0,0
	v130.008l0,0c0,0.001,0,0.001,0,0.002c0,2.761,2.239,5,5,5c0.007,0,0.013-0.002,0.02-0.002h129.97c0.007,0,0.013,0.002,0.02,0.002
	c2.762,0,5-2.239,5-5c0-0.003-0.001-0.007-0.001-0.01V15.01z"/>
<path fill="#00FF00" d="M150.008,15.01c0-0.003,0.001-0.006,0.001-0.01c0-2.761-2.238-5-5-5h-0.001v0H15v0c-2.761,0-5,2.239-5,5l0,0
	v130.008l0,0c0,0.001,0,0.001,0,0.002c0,2.761,2.239,5,5,5c0.007,0,0.013-0.002,0.02-0.002h129.97c0.007,0,0.013,0.002,0.02,0.002
	c2.762,0,5-2.239,5-5c0-0.003-0.001-0.007-0.001-0.01V15.01z M140.008,140.008H20V20h120.008V140.008z"/>
<path fill="#00FF00" d="M135.215,26.983c-0.987-1.264-2.462-1.902-3.95-1.9v-0.021l-57.009,0.124v0.038
	c-1.07,0.004-2.146,0.33-3.055,1.039l-0.013-0.017l-35.46,27.705l0.012,0.016l0,0c-2.176,1.7-2.561,4.842-0.861,7.019
	c1.701,2.177,4.843,2.562,7.02,0.861c0.057-0.044,0.098-0.1,0.152-0.146l33.942-26.519l48.866-0.106l-11.925,47.386l-53.811,42.04
	l-24.626-31.52l45.969-35.915l16.672-0.315l-4.356,16.069L58.629,99.505l0,0c0,0.001,0,0.001-0.001,0.001
	c-2.176,1.699-2.562,4.842-0.862,7.018c1.701,2.177,4.842,2.562,7.019,0.861l0,0.001l35.46-27.705c0.001,0,0.002-0.001,0.003-0.002
	c0.885-0.691,1.457-1.625,1.729-2.631l0.019,0.005l6.538-24.116l-0.033-0.009c0.401-1.47,0.145-3.102-0.866-4.395
	c-1.003-1.284-2.509-1.925-4.021-1.902v-0.001l-0.016,0c-0.111,0.002-0.221-0.003-0.331,0.006l-24.658,0.467l0,0.021
	c-1.048,0.018-2.099,0.346-2.988,1.041c-0.001,0.001-0.002,0.002-0.003,0.003L24.4,88.181l0,0.001h0
	c-2.176,1.699-2.561,4.842-0.861,7.018h0l30.783,39.399c0,0.001,0,0.001,0.001,0.002c1.699,2.177,4.842,2.562,7.02,0.86
	c0.001-0.001,0.002-0.002,0.003-0.003l59.097-46.17v-0.001l0,0c0.912-0.712,1.488-1.683,1.75-2.725l0.021,0.005l13.912-55.285
	l-0.021-0.005C136.466,29.833,136.203,28.248,135.215,26.983z"/>
</svg>
