<?xml version="1.0" encoding="utf-8"?>
<!-- Generator: Adobe Illustrator 14.0.0, SVG Export Plug-In . SVG Version: 6.00 Build 43363)  -->
<!DOCTYPE svg PUBLIC "-//W3C//DTD SVG 1.1//EN" "http://www.w3.org/Graphics/SVG/1.1/DTD/svg11.dtd">
<svg version="1.1" xmlns="http://www.w3.org/2000/svg" xmlns:xlink="http://www.w3.org/1999/xlink" x="0px" y="0px" width="256px"
	 height="256px" viewBox="-1603 1497 256 256" enable-background="new -1603 1497 256 256" xml:space="preserve">
<g id="Hilfslinien">
</g>
<g id="back">
	<rect x="-1603" y="1497" fill="#FF00FF" width="256" height="256"/>
</g>
<g id="front">
	<circle fill="#00FF00" cx="-1379" cy="1624.999" r="16"/>
	<path fill="#00FF00" d="M-1587,1624.998c0-8.832,7.164-15.998,16.001-15.998c8.834,0,15.998,7.165,15.999,16
		c0,8.834-7.165,15.999-16,16C-1579.836,1640.998-1587,1633.835-1587,1624.998z"/>
	<rect x="-1571" y="1609" fill="#00FF00" width="192.001" height="32"/>
	<path fill="#00FF00" d="M-1475,1545c-8.835,0.002-15.999-7.162-16-16.002c0.001-8.836,7.166-16,15.998-15.998
		c8.835-0.002,16.003,7.162,16.002,15.998C-1459.001,1537.838-1466.165,1545.002-1475,1545z"/>
	<path fill="#00FF00" d="M-1475.002,1737c-8.832,0-15.998-7.164-15.998-16c0-8.834,7.165-15.998,16-16c8.834,0,15.999,7.166,16,16
		C-1459.002,1729.836-1466.165,1737-1475.002,1737z"/>
	<rect x="-1491" y="1528.999" fill="#00FF00" width="32" height="192.001"/>
</g>
</svg>
