<?xml version="1.0" encoding="utf-8"?>
<!-- Generator: Adobe Illustrator 14.0.0, SVG Export Plug-In . SVG Version: 6.00 Build 43363)  -->
<!DOCTYPE svg PUBLIC "-//W3C//DTD SVG 1.1//EN" "http://www.w3.org/Graphics/SVG/1.1/DTD/svg11.dtd">
<svg version="1.1" xmlns="http://www.w3.org/2000/svg" xmlns:xlink="http://www.w3.org/1999/xlink" x="0px" y="0px" width="256px"
	 height="256px" viewBox="-1603 1497 256 256" enable-background="new -1603 1497 256 256" xml:space="preserve">
<g id="Hilfslinien">
</g>
<g id="back">
	<rect x="-1603" y="1497" fill="#FF00FF" width="256" height="256"/>
</g>
<g id="front_Kopie">
	<g>
		<path fill="#FFFF00" d="M-1367.687,1565.687L-1367.687,1565.687l-48-48l0,0.001c-2.896-2.896-6.895-4.687-11.312-4.688l0,0H-1507
			l0,0c-0.001,0-0.002,0-0.004,0c-8.832-0.004-15.996,7.162-15.996,15.998c0,0.001,0,0.001,0,0.002l0,0v175.999l0,0
			c0.001,8.839,7.165,16.002,15.999,16c0.001,0,0.003,0,0.004,0l0,0l127.474-0.026c0.174,0.006,0.345,0.026,0.521,0.026
			c8.834,0.002,15.998-7.161,16.001-16l0,0V1577l0,0c0-0.001,0-0.001,0-0.002C-1363,1572.581-1364.792,1568.582-1367.687,1565.687z"
			/>
	</g>
	<line fill="none" stroke="#00FF00" stroke-width="32" x1="-1379" y1="1704.999" x2="-1379" y2="1577"/>
	<path fill="#00FF00" d="M-1427.001,1593c-8.835,0.002-15.999-7.162-15.999-16.002c0-8.836,7.164-16.002,15.996-15.998
		c8.836-0.002,16.004,7.162,16.004,15.998C-1411.002,1585.838-1418.167,1593.002-1427.001,1593z"/>
	<path fill="#00FF00" d="M-1379.001,1593c-8.835,0.002-15.999-7.162-15.999-16.002c0-8.836,7.164-16.002,15.996-15.998
		c8.836-0.002,16.004,7.162,16.004,15.998C-1363.002,1585.838-1370.166,1593.002-1379.001,1593z"/>
	<path fill="#00FF00" d="M-1427.001,1545c-8.835,0.002-15.999-7.162-15.999-16.002c0-8.836,7.164-16.002,15.996-15.998
		c8.836-0.002,16.004,7.162,16.004,15.998C-1411.002,1537.838-1418.167,1545.002-1427.001,1545z"/>
	<path fill="#00FF00" d="M-1507.001,1545c-8.835,0.002-15.999-7.162-15.999-16.002c0-8.836,7.164-16.002,15.996-15.998
		c8.836-0.002,16.004,7.162,16.004,15.998C-1491.002,1537.838-1498.166,1545.002-1507.001,1545z"/>
	<path fill="#00FF00" d="M-1507.001,1720.999c-8.835,0.002-15.999-7.162-15.999-16.002c0-8.836,7.164-16.002,15.996-15.998
		c8.836-0.002,16.004,7.162,16.004,15.998C-1491.002,1713.837-1498.166,1721.001-1507.001,1720.999z"/>
	<path fill="#00FF00" d="M-1379.001,1720.999c-8.835,0.002-15.999-7.162-15.999-16.002c0-8.836,7.164-16.002,15.996-15.998
		c8.836-0.002,16.004,7.162,16.004,15.998C-1363.002,1713.837-1370.166,1721.001-1379.001,1720.999z"/>
	<line fill="none" stroke="#00FF00" stroke-width="32" x1="-1426.999" y1="1529" x2="-1507" y2="1529"/>
	<line fill="none" stroke="#00FF00" stroke-width="32" x1="-1427" y1="1529" x2="-1427" y2="1577"/>
	<line fill="none" stroke="#00FF00" stroke-width="32" x1="-1379" y1="1577" x2="-1427" y2="1577"/>
	<line fill="none" stroke="#00FF00" stroke-width="32" x1="-1507" y1="1529" x2="-1507" y2="1704.999"/>
	<line fill="none" stroke="#00FF00" stroke-width="32" x1="-1507" y1="1704.999" x2="-1378.921" y2="1704.973"/>
	<line fill="none" stroke="#00FF00" stroke-width="32" x1="-1379" y1="1577" x2="-1427" y2="1529"/>
</g>
<g id="Ebene_7">
	<circle fill="#00FF00" cx="-1531" cy="1681" r="56"/>
	<circle fill="#FFFF00" cx="-1531" cy="1704.999" r="8"/>
	<line fill="none" stroke="#FFFF00" stroke-width="16" x1="-1531" y1="1704.999" x2="-1531" y2="1656.999"/>
	<path fill="#FFFF00" d="M-1547.001,1665c0-8.838,7.162-16,15.999-16s16.001,7.162,16.001,16c0.002,8.84-7.162,16-15.999,16
		S-1547.003,1673.838-1547.001,1665z"/>
</g>
</svg>
