<?xml version="1.0" encoding="utf-8"?>
<!-- Generator: Adobe Illustrator 14.0.0, SVG Export Plug-In . SVG Version: 6.00 Build 43363)  -->
<!DOCTYPE svg PUBLIC "-//W3C//DTD SVG 1.1//EN" "http://www.w3.org/Graphics/SVG/1.1/DTD/svg11.dtd">
<svg version="1.1" id="Ebene_1" xmlns="http://www.w3.org/2000/svg" xmlns:xlink="http://www.w3.org/1999/xlink" x="0px" y="0px"
	 width="256px" height="256px" viewBox="-1603 1497 256 256" enable-background="new -1603 1497 256 256" xml:space="preserve">
<rect x="-1603" y="1497" fill="#FF00FF" width="256" height="256"/>
<circle fill="#FFFF00" cx="-1475" cy="1625" r="112"/>
<path fill="#00FF00" d="M-1475,1513c-19.672,0-39.026,5.176-55.97,14.969l0.009,0.016c-0.012,0.007-0.025,0.013-0.038,0.02
	c-5.74,3.314-7.706,10.653-4.395,16.393c3.314,5.739,10.655,7.705,16.393,4.393c0.072-0.042,0.136-0.091,0.207-0.134
	c13.259-7.624,28.397-11.655,43.794-11.655c48.523,0,88,39.476,88,87.998c0,48.524-39.477,88.002-88,88.002
	c-48.523,0-88-39.478-88-88.002c0-15.398,4.033-30.537,11.658-43.797c0.042-0.069,0.09-0.132,0.131-0.202
	c3.313-5.737,1.348-13.078-4.393-16.393c-5.738-3.313-13.078-1.345-16.39,4.392c-0.005,0.01-0.009,0.02-0.015,0.028l-0.016-0.009
	c-9.797,16.946-14.976,36.304-14.976,55.98c0,61.758,50.243,112.002,112,112.002c61.757,0,112-50.244,112-112.002
	C-1363,1563.242-1413.243,1513-1475,1513z"/>
<path fill="#00FF00" d="M-1408.571,1616.509l-33.938-33.939c-4.688-4.686-12.285-4.686-16.971,0c-4.687,4.688-4.688,12.285,0,16.971
	l13.456,13.456h-56.005l13.455-13.454c4.687-4.687,4.686-12.284,0-16.971s-12.284-4.687-16.971,0l-33.939,33.938
	c-0.089,0.09-0.166,0.187-0.251,0.278c-0.183,0.194-0.368,0.388-0.538,0.595c-0.135,0.164-0.253,0.336-0.378,0.505
	c-0.108,0.146-0.222,0.288-0.323,0.439c-0.124,0.185-0.231,0.375-0.343,0.564c-0.088,0.147-0.181,0.292-0.262,0.443
	c-0.101,0.188-0.186,0.38-0.275,0.571c-0.077,0.165-0.159,0.326-0.229,0.494c-0.075,0.184-0.137,0.37-0.203,0.556
	c-0.066,0.185-0.137,0.366-0.194,0.555c-0.055,0.184-0.096,0.369-0.142,0.554c-0.049,0.195-0.104,0.388-0.144,0.586
	c-0.042,0.212-0.066,0.425-0.097,0.638c-0.025,0.175-0.058,0.347-0.076,0.523c-0.039,0.395-0.06,0.789-0.06,1.185l0,0
	c0,0.002,0,0.003,0,0.004c0,0.009,0.001,0.017,0.001,0.025c-0.009,3.082,1.161,6.168,3.513,8.521l33.938,33.939
	c4.688,4.686,12.285,4.686,16.971,0c4.687-4.688,4.688-12.285,0-16.971l-13.518-13.519h56.13l-13.517,13.517
	c-4.687,4.687-4.686,12.284,0,16.971s12.284,4.687,16.971,0l33.939-33.938c2.35-2.352,3.52-5.435,3.513-8.516
	C-1405.049,1621.947-1406.219,1618.861-1408.571,1616.509z"/>
</svg>
