<?xml version="1.0" encoding="utf-8"?>
<!-- Generator: Adobe Illustrator 14.0.0, SVG Export Plug-In . SVG Version: 6.00 Build 43363)  -->
<!DOCTYPE svg PUBLIC "-//W3C//DTD SVG 1.1//EN" "http://www.w3.org/Graphics/SVG/1.1/DTD/svg11.dtd">
<svg version="1.1" xmlns="http://www.w3.org/2000/svg" xmlns:xlink="http://www.w3.org/1999/xlink" x="0px" y="0px" width="256px"
	 height="256px" viewBox="-1603 1497 256 256" enable-background="new -1603 1497 256 256" xml:space="preserve">
<g id="Hilfslinien">
</g>
<g id="back">
	<rect x="-1603" y="1497" fill="#FF00FF" width="256" height="256"/>
</g>
<g id="front_Kopie">
	<g>
		<path fill="#FFFF00" d="M-1367.687,1565.687L-1367.687,1565.687l-48-48l0,0.001c-2.896-2.896-6.895-4.687-11.312-4.688l0,0H-1507
			l0,0c-0.001,0-0.002,0-0.004,0c-8.832-0.004-15.996,7.162-15.996,15.998c0,0.001,0,0.001,0,0.002l0,0v175.999l0,0
			c0.001,8.839,7.165,16.002,15.999,16c0.001,0,0.003,0,0.004,0l0,0l127.474-0.026c0.174,0.006,0.345,0.026,0.521,0.026
			c8.834,0.002,15.998-7.161,16.001-16l0,0V1577l0,0c0-0.001,0-0.001,0-0.002C-1363,1572.581-1364.792,1568.582-1367.687,1565.687z"
			/>
	</g>
	<line fill="none" stroke="#00FF00" stroke-width="32" x1="-1379" y1="1704.999" x2="-1379" y2="1577"/>
	<path fill="#00FF00" d="M-1427.001,1593c-8.835,0.002-15.999-7.162-15.999-16.002c0-8.836,7.164-16.002,15.996-15.998
		c8.836-0.002,16.004,7.162,16.004,15.998C-1411.002,1585.838-1418.167,1593.002-1427.001,1593z"/>
	<path fill="#00FF00" d="M-1379.001,1593c-8.835,0.002-15.999-7.162-15.999-16.002c0-8.836,7.164-16.002,15.996-15.998
		c8.836-0.002,16.004,7.162,16.004,15.998C-1363.002,1585.838-1370.166,1593.002-1379.001,1593z"/>
	<path fill="#00FF00" d="M-1427.001,1545c-8.835,0.002-15.999-7.162-15.999-16.002c0-8.836,7.164-16.002,15.996-15.998
		c8.836-0.002,16.004,7.162,16.004,15.998C-1411.002,1537.838-1418.167,1545.002-1427.001,1545z"/>
	<path fill="#00FF00" d="M-1507.001,1545c-8.835,0.002-15.999-7.162-15.999-16.002c0-8.836,7.164-16.002,15.996-15.998
		c8.836-0.002,16.004,7.162,16.004,15.998C-1491.002,1537.838-1498.166,1545.002-1507.001,1545z"/>
	<path fill="#00FF00" d="M-1507.001,1720.999c-8.835,0.002-15.999-7.162-15.999-16.002c0-8.836,7.164-16.002,15.996-15.998
		c8.836-0.002,16.004,7.162,16.004,15.998C-1491.002,1713.837-1498.166,1721.001-1507.001,1720.999z"/>
	<path fill="#00FF00" d="M-1379.001,1720.999c-8.835,0.002-15.999-7.162-15.999-16.002c0-8.836,7.164-16.002,15.996-15.998
		c8.836-0.002,16.004,7.162,16.004,15.998C-1363.002,1713.837-1370.166,1721.001-1379.001,1720.999z"/>
	<line fill="none" stroke="#00FF00" stroke-width="32" x1="-1426.999" y1="1529" x2="-1507" y2="1529"/>
	<line fill="none" stroke="#00FF00" stroke-width="32" x1="-1427" y1="1529" x2="-1427" y2="1577"/>
	<line fill="none" stroke="#00FF00" stroke-width="32" x1="-1379" y1="1577" x2="-1427" y2="1577"/>
	<line fill="none" stroke="#00FF00" stroke-width="32" x1="-1507" y1="1529" x2="-1507" y2="1704.999"/>
	<line fill="none" stroke="#00FF00" stroke-width="32" x1="-1507" y1="1704.999" x2="-1378.921" y2="1704.973"/>
	<line fill="none" stroke="#00FF00" stroke-width="32" x1="-1379" y1="1577" x2="-1427" y2="1529"/>
	<circle fill="#00FF00" cx="-1531" cy="1681" r="56"/>
</g>
<g id="Ebene_7" display="none">
	<path display="inline" fill="none" stroke="#FFFF00" d="M-1538.999,1713.003c0-4.419,3.582-8,8-8s8,3.581,8,8"/>
	<path display="inline" fill="none" stroke="#FFFF00" d="M-1522.999,1648.997c0,4.419-3.582,8-8,8s-8-3.581-8-8"/>
	<path display="inline" fill="none" stroke="#FFFF00" d="M-1498.996,1673c4.419,0,8,3.582,8,8s-3.581,8-8,8"/>
	<path display="inline" fill="none" stroke="#FFFF00" d="M-1563.001,1689c-4.419,0-8-3.582-8-8s3.581-8,8-8"/>
	<path display="inline" fill="none" stroke="#FFFF00" d="M-1499.283,1671.928c-3.827,2.209-8.72,0.897-10.929-2.929
		s-0.898-8.719,2.929-10.929"/>
	<path display="inline" fill="none" stroke="#FFFF00" d="M-1562.714,1690.074c3.826-2.21,8.719-0.898,10.928,2.928
		s0.898,8.719-2.928,10.928"/>
	<path display="inline" fill="none" stroke="#FFFF00" d="M-1553.929,1657.285c-2.209-3.827-0.897-8.719,2.929-10.928
		s8.719-0.899,10.928,2.928"/>
	<path display="inline" fill="none" stroke="#FFFF00" d="M-1508.069,1704.716c2.21,3.827,0.898,8.72-2.928,10.929
		s-8.719,0.898-10.929-2.929"/>
	<path display="inline" fill="none" stroke="#FFFF00" d="M-1554.713,1658.07c3.827,2.21,5.137,7.103,2.928,10.929
		c-2.209,3.826-7.102,5.138-10.929,2.929"/>
	<path display="inline" fill="none" stroke="#FFFF00" d="M-1507.283,1703.93c-3.827-2.209-5.138-7.102-2.928-10.928
		c2.209-3.826,7.101-5.137,10.927-2.928"/>
	<path display="inline" fill="none" stroke="#FFFF00" d="M-1540.071,1712.716c-2.21,3.827-7.102,5.137-10.928,2.928
		s-5.138-7.101-2.928-10.928"/>
	<path display="inline" fill="none" stroke="#FFFF00" d="M-1521.925,1649.285c2.209-3.828,7.102-5.138,10.928-2.929
		s5.137,7.102,2.928,10.929"/>
</g>
<g id="Ebene_5" display="none">
	<path display="inline" fill="#FFFF00" d="M-1498.998,1673c-0.337,0-0.668,0.027-0.995,0.068c-0.06-0.235-8.183-0.541-10.22-4.069
		c-2.035-3.525,1.75-10.708,1.577-10.877c0.201-0.266,0.393-0.541,0.564-0.837c2.209-3.826,0.897-8.719-2.929-10.928
		s-8.718-0.898-10.928,2.928c-0.17,0.295-0.312,0.597-0.441,0.902c-0.231-0.064-4.558,6.811-8.63,6.811s-8.4-6.875-8.631-6.811
		c-0.129-0.306-0.271-0.607-0.441-0.902c-2.209-3.826-7.103-5.138-10.929-2.929s-5.137,7.103-2.928,10.929
		c0.171,0.296,0.363,0.571,0.563,0.836c-0.172,0.168,3.616,7.352,1.58,10.877c-2.038,3.529-10.164,3.834-10.224,4.07
		c-0.326-0.041-0.656-0.068-0.993-0.068c-4.418,0-8,3.582-8,8s3.582,8,8,8c0.337,0,0.667-0.027,0.993-0.068
		c0.06,0.236,8.186,0.54,10.224,4.069c2.036,3.526-1.753,10.708-1.581,10.876c-0.201,0.266-0.393,0.54-0.563,0.836
		c-2.209,3.826-0.898,8.721,2.928,10.93s8.719,0.896,10.929-2.93c0.17-0.294,0.312-0.596,0.44-0.9
		c0.232,0.064,4.56-6.811,8.633-6.811s8.4,6.875,8.632,6.811c0.129,0.305,0.271,0.606,0.44,0.9
		c2.209,3.826,7.103,5.137,10.929,2.928s5.137-7.102,2.928-10.928c-0.171-0.296-0.362-0.571-0.563-0.836
		c0.172-0.169-3.613-7.352-1.578-10.877c2.037-3.528,10.16-3.833,10.22-4.068c0.327,0.041,0.657,0.068,0.995,0.068
		c4.418,0,8-3.582,8-8S-1494.58,1673-1498.998,1673z"/>
	<circle display="inline" fill="#00FF00" cx="-1531" cy="1681" r="8"/>
</g>
<g id="Ebene_6" display="none">
	<circle display="inline" fill="#BF0B29" cx="-1563" cy="1681" r="8"/>
	<circle display="inline" fill="#BF0B29" cx="-1498.998" cy="1681" r="8"/>
	<circle display="inline" fill="#BF0B29" cx="-1514.998" cy="1708.713" r="8"/>
	<path display="inline" fill="none" stroke="#BF0B29" d="M-1553.928,1657.285c-2.209-3.826-0.898-8.72,2.928-10.929
		s8.72-0.897,10.929,2.929"/>
	<circle display="inline" fill="#BF0B29" cx="-1515" cy="1653.285" r="7.999"/>
	<circle display="inline" fill="#BF0B29" cx="-1547.001" cy="1708.714" r="8"/>
	<path display="inline" fill="none" stroke="#BF0B29" d="M-1562.712,1690.072c3.826-2.209,8.719-0.897,10.928,2.929
		s0.898,8.719-2.928,10.928"/>
	<path display="inline" fill="none" stroke="#BF0B29" d="M-1499.284,1671.928c-3.826,2.209-8.719,0.897-10.928-2.929
		s-0.898-8.719,2.928-10.928"/>
	<path display="inline" fill="none" stroke="#BF0B29" d="M-1507.284,1703.928c-3.826-2.209-5.137-7.102-2.928-10.928
		s7.102-5.138,10.928-2.929"/>
	<path display="inline" fill="none" stroke="#BF0B29" d="M-1554.712,1658.07c3.826,2.209,5.137,7.102,2.928,10.928
		s-7.102,5.138-10.928,2.929"/>
	<path display="inline" fill="none" stroke="#BF0B29" d="M-1522.999,1648.998c0,4.418-3.582,8-8,8s-8-3.582-8-8"/>
	<path display="inline" fill="none" stroke="#BF0B29" d="M-1538.999,1713c0-4.418,3.582-7.998,8-7.998s8,3.58,8,7.998"/>
</g>
<g id="Ebene_9">
	<path fill="#FFFF00" d="M-1491.394,1686.564c0.253-1.819,0.394-3.676,0.394-5.564s-0.141-3.743-0.394-5.562l-9.917-3.364
		c-0.604-2.012-1.403-3.938-2.382-5.755l4.634-9.394c-2.244-2.973-4.893-5.621-7.865-7.865l-9.393,4.634
		c-1.817-0.979-3.744-1.778-5.756-2.383l-3.365-9.917c-1.819-0.253-3.673-0.394-5.562-0.394s-3.743,0.141-5.562,0.394l-3.365,9.917
		c-2.013,0.604-3.94,1.404-5.757,2.384l-9.393-4.634c-2.972,2.244-5.62,4.893-7.864,7.864l4.634,9.394
		c-0.979,1.817-1.778,3.744-2.382,5.756l-9.917,3.365c-0.253,1.818-0.394,3.673-0.394,5.561c0,1.89,0.141,3.745,0.394,5.564
		l9.917,3.365c0.604,2.011,1.404,3.938,2.382,5.754l-4.634,9.393c2.244,2.973,4.893,5.622,7.866,7.866l9.394-4.635
		c1.816,0.979,3.741,1.777,5.751,2.381l3.365,9.918c1.819,0.253,3.675,0.394,5.564,0.394s3.745-0.141,5.564-0.394l3.365-9.918
		c2.01-0.604,3.936-1.402,5.752-2.381l9.394,4.634c2.973-2.244,5.622-4.894,7.867-7.866l-4.634-9.394
		c0.979-1.815,1.778-3.742,2.382-5.753L-1491.394,1686.564z"/>
	<circle fill="#00FF00" cx="-1531" cy="1681" r="8"/>
</g>
<g id="Ebene_8" display="none">
	<line display="inline" fill="none" stroke="#BF0B29" stroke-width="0.25" x1="-1531" y1="1625" x2="-1531" y2="1737"/>
	
		<line display="inline" fill="none" stroke="#BF0B29" stroke-width="0.25" x1="-1545.494" y1="1626.908" x2="-1516.507" y2="1735.092"/>
	
		<line display="inline" fill="none" stroke="#BF0B29" stroke-width="0.25" x1="-1559.001" y1="1632.502" x2="-1503.001" y2="1729.498"/>
	
		<line display="inline" fill="none" stroke="#BF0B29" stroke-width="0.25" x1="-1570.6" y1="1641.401" x2="-1491.403" y2="1720.598"/>
	<line display="inline" fill="none" stroke="#BF0B29" stroke-width="0.25" x1="-1579.5" y1="1653" x2="-1482.504" y2="1709"/>
	
		<line display="inline" fill="none" stroke="#BF0B29" stroke-width="0.25" x1="-1585.096" y1="1666.507" x2="-1476.91" y2="1695.494"/>
	<line display="inline" fill="none" stroke="#BF0B29" stroke-width="0.25" x1="-1587.004" y1="1681.002" x2="-1475.003" y2="1681"/>
	
		<line display="inline" fill="none" stroke="#BF0B29" stroke-width="0.25" x1="-1585.096" y1="1695.496" x2="-1476.912" y2="1666.507"/>
	
		<line display="inline" fill="none" stroke="#BF0B29" stroke-width="0.25" x1="-1579.501" y1="1709.003" x2="-1482.507" y2="1653.002"/>
	
		<line display="inline" fill="none" stroke="#BF0B29" stroke-width="0.25" x1="-1570.602" y1="1720.602" x2="-1491.406" y2="1641.404"/>
	
		<line display="inline" fill="none" stroke="#BF0B29" stroke-width="0.25" x1="-1559.004" y1="1729.502" x2="-1503.004" y2="1632.506"/>
	
		<line display="inline" fill="none" stroke="#BF0B29" stroke-width="0.25" x1="-1545.497" y1="1735.098" x2="-1516.51" y2="1626.912"/>
	<ellipse display="inline" fill="none" stroke="#BF0B29" stroke-width="0.2443" cx="-1531" cy="1681" rx="33" ry="32"/>
	<circle display="inline" fill="none" stroke="#BF0B29" stroke-width="0.1805" cx="-1531" cy="1681" r="24"/>
</g>
<g id="Ebene_10">
</g>
</svg>
