<?xml version="1.0" encoding="utf-8"?>
<!-- Generator: Adobe Illustrator 14.0.0, SVG Export Plug-In . SVG Version: 6.00 Build 43363)  -->
<!DOCTYPE svg PUBLIC "-//W3C//DTD SVG 1.1//EN" "http://www.w3.org/Graphics/SVG/1.1/DTD/svg11.dtd">
<svg version="1.1" xmlns="http://www.w3.org/2000/svg" xmlns:xlink="http://www.w3.org/1999/xlink" x="0px" y="0px" width="256px"
	 height="256px" viewBox="-1603 1497 256 256" enable-background="new -1603 1497 256 256" xml:space="preserve">
<g id="Hilfslinien">
</g>
<g id="back">
	<rect x="-1603" y="1497" fill="#FF00FF" width="256" height="256"/>
</g>
<g id="front_Kopie">
	<g>
		<path fill="#FFFF00" d="M-1359.686,1557.686L-1359.686,1557.686l-48-48l0,0.001c-2.896-2.896-6.895-4.687-11.312-4.688l0,0H-1499
			l0,0c-0.001,0-0.002,0-0.004,0c-8.832-0.004-15.996,7.162-15.996,15.998c0,0.001,0,0.001,0,0.002l0,0v175.999l0,0
			c0.001,8.839,7.165,16.002,15.999,16c0.001,0,0.003,0,0.004,0l0,0l127.474-0.026c0.174,0.006,0.345,0.026,0.521,0.026
			c8.834,0.002,15.998-7.161,16.001-16l0,0v-127.999l0,0c0-0.001,0-0.001,0-0.002
			C-1355,1564.58-1356.791,1560.581-1359.686,1557.686z"/>
	</g>
	<line fill="none" stroke="#00FF00" stroke-width="32" x1="-1371" y1="1696.998" x2="-1371" y2="1568.999"/>
	<path fill="#00FF00" d="M-1419.001,1584.999c-8.835,0.002-15.999-7.162-15.999-16.002c0-8.836,7.164-16.002,15.996-15.998
		c8.836-0.002,16.004,7.162,16.004,15.998C-1403.002,1577.837-1410.166,1585.001-1419.001,1584.999z"/>
	<path fill="#00FF00" d="M-1371,1584.999c-8.835,0.002-15.999-7.162-15.999-16.002c0-8.836,7.164-16.002,15.996-15.998
		c8.836-0.002,16.004,7.162,16.004,15.998C-1355.001,1577.837-1362.166,1585.001-1371,1584.999z"/>
	<path fill="#00FF00" d="M-1419.001,1536.999c-8.835,0.002-15.999-7.162-15.999-16.002c0-8.836,7.164-16.002,15.996-15.998
		c8.836-0.002,16.004,7.162,16.004,15.998C-1403.002,1529.837-1410.166,1537.001-1419.001,1536.999z"/>
	<path fill="#00FF00" d="M-1499,1536.999c-8.835,0.002-15.999-7.162-15.999-16.002c0-8.836,7.164-16.002,15.996-15.998
		c8.836-0.002,16.004,7.162,16.004,15.998C-1483.001,1529.837-1490.166,1537.001-1499,1536.999z"/>
	<path fill="#00FF00" d="M-1499,1712.998c-8.835,0.002-15.999-7.162-15.999-16.002c0-8.836,7.164-16.002,15.996-15.998
		c8.836-0.002,16.004,7.162,16.004,15.998C-1483.001,1705.836-1490.166,1713-1499,1712.998z"/>
	<path fill="#00FF00" d="M-1371,1712.998c-8.835,0.002-15.999-7.162-15.999-16.002c0-8.836,7.164-16.002,15.996-15.998
		c8.836-0.002,16.004,7.162,16.004,15.998C-1355.001,1705.836-1362.166,1713-1371,1712.998z"/>
	<line fill="none" stroke="#00FF00" stroke-width="32" x1="-1418.999" y1="1520.999" x2="-1499" y2="1520.999"/>
	<line fill="none" stroke="#00FF00" stroke-width="32" x1="-1418.999" y1="1520.999" x2="-1418.999" y2="1568.999"/>
	<line fill="none" stroke="#00FF00" stroke-width="32" x1="-1371" y1="1568.999" x2="-1419" y2="1568.999"/>
	<line fill="none" stroke="#00FF00" stroke-width="32" x1="-1499" y1="1520.999" x2="-1499" y2="1696.998"/>
	<line fill="none" stroke="#00FF00" stroke-width="32" x1="-1499" y1="1696.998" x2="-1370.92" y2="1696.972"/>
	<line fill="none" stroke="#00FF00" stroke-width="32" x1="-1371" y1="1568.999" x2="-1419" y2="1520.999"/>
</g>
<g id="Ebene_7">
	<circle fill="#00FF00" cx="-1531" cy="1680.999" r="64"/>
	<circle fill="#FFFF00" cx="-1531" cy="1721.001" r="8"/>
	<line fill="none" stroke="#FFFF00" stroke-width="16" x1="-1531" y1="1721.001" x2="-1531" y2="1665"/>
	<path fill="#FFFF00" d="M-1531.001,1626.999c16.57-0.001,30,13.429,30,29.999c0,16.567-13.43,30.001-29.998,30.001
		c-16.576,0.005-30.001-13.429-30.002-29.999C-1561,1640.43-1547.57,1626.994-1531.001,1626.999z"/>
	<path fill="#00FF00" d="M-1538.914,1656.996c-0.001,4.419,3.579,8.003,7.999,8.001h32v-8.001l0,0l0-15.999l-31.999-0.001
		c-4.421-0.001-8.001,3.581-7.999,7.999"/>
</g>
</svg>
