<?xml version="1.0" encoding="utf-8"?>
<!-- Generator: Adobe Illustrator 14.0.0, SVG Export Plug-In . SVG Version: 6.00 Build 43363)  -->
<!DOCTYPE svg PUBLIC "-//W3C//DTD SVG 1.1//EN" "http://www.w3.org/Graphics/SVG/1.1/DTD/svg11.dtd">
<svg version="1.1" xmlns="http://www.w3.org/2000/svg" xmlns:xlink="http://www.w3.org/1999/xlink" x="0px" y="0px" width="256px"
	 height="256px" viewBox="-1603 1497 256 256" enable-background="new -1603 1497 256 256" xml:space="preserve">
<g id="Hilfslinien">
</g>
<g id="back">
	<rect x="-1603" y="1497" fill="#FF00FF" width="256" height="256"/>
</g>
<g id="front">
	<path fill="#00FF00" d="M-1587.001,1625.004c-0.002,8.832,7.162,15.997,16,15.998c8.834-0.001,15.998-7.166,15.999-16.001
		c0-8.833-7.165-15.998-15.999-16C-1579.839,1609.003-1587.003,1616.167-1587.001,1625.004z"/>
	<g>
		<path fill="#00FF00" d="M-1475.001,1545c8.835,0.004,15.999-7.16,15.999-16c-0.001-8.836-7.166-16.002-15.996-15.998
			c-8.836-0.004-16.004,7.162-16.003,15.998C-1491,1537.84-1483.837,1545.004-1475.001,1545z"/>
		<path fill="#00FF00" d="M-1475,1737.004c8.832,0,15.999-7.166,15.999-16.002c0-8.834-7.165-15.998-15.999-16
			c-8.836,0.002-16,7.166-16.001,16C-1491,1729.84-1483.836,1737.004-1475,1737.004z"/>
		<path fill="#00FF00" d="M-1395,1625.003c-0.001,8.834,7.162,15.998,16.002,15.998c8.836,0,16-7.165,15.998-15.996
			c0.002-8.836-7.162-16.004-15.999-16.003C-1387.837,1609.003-1395,1616.167-1395,1625.003z"/>
		<line fill="none" stroke="#00FF00" stroke-width="32" x1="-1475.001" y1="1721.003" x2="-1379.001" y2="1625.002"/>
		<line fill="none" stroke="#00FF00" stroke-width="32" x1="-1379.001" y1="1625.002" x2="-1475.002" y2="1529"/>
	</g>
	<line fill="none" stroke="#00FF00" stroke-width="32" x1="-1571.002" y1="1625.002" x2="-1379.001" y2="1625.002"/>
</g>
</svg>
