<?xml version="1.0" encoding="utf-8"?>
<!-- Generator: Adobe Illustrator 14.0.0, SVG Export Plug-In . SVG Version: 6.00 Build 43363)  -->
<!DOCTYPE svg PUBLIC "-//W3C//DTD SVG 1.1//EN" "http://www.w3.org/Graphics/SVG/1.1/DTD/svg11.dtd">
<svg version="1.1" xmlns="http://www.w3.org/2000/svg" xmlns:xlink="http://www.w3.org/1999/xlink" x="0px" y="0px" width="256px"
	 height="256px" viewBox="-1603 1497 256 256" enable-background="new -1603 1497 256 256" xml:space="preserve">
<g id="Hilfslinien">
</g>
<g id="back">
	<rect x="-1603" y="1497" fill="#FF00FF" width="256" height="256"/>
</g>
<g id="front_Kopie">
	<g>
		<path fill="#FFFF00" d="M-1367.687,1565.687L-1367.687,1565.687l-48-48l0,0.001c-2.896-2.896-6.895-4.687-11.312-4.688l0,0H-1507
			l0,0c-0.001,0-0.002,0-0.004,0c-8.832-0.004-15.996,7.162-15.996,15.998c0,0.001,0,0.001,0,0.002l0,0v175.999l0,0
			c0.001,8.839,7.165,16.002,15.999,16c0.001,0,0.003,0,0.004,0l0,0l127.474-0.026c0.174,0.006,0.345,0.026,0.521,0.026
			c8.834,0.002,15.998-7.161,16.001-16l0,0V1577l0,0c0-0.001,0-0.001,0-0.002C-1363,1572.581-1364.792,1568.582-1367.687,1565.687z"
			/>
	</g>
	<line fill="none" stroke="#00FF00" stroke-width="32" x1="-1379" y1="1704.999" x2="-1379" y2="1577"/>
	<path fill="#00FF00" d="M-1427.001,1593c-8.835,0.002-15.999-7.162-15.999-16.002c0-8.836,7.164-16.002,15.996-15.998
		c8.836-0.002,16.004,7.162,16.004,15.998C-1411.002,1585.838-1418.167,1593.002-1427.001,1593z"/>
	<path fill="#00FF00" d="M-1379.001,1593c-8.835,0.002-15.999-7.162-15.999-16.002c0-8.836,7.164-16.002,15.996-15.998
		c8.836-0.002,16.004,7.162,16.004,15.998C-1363.002,1585.838-1370.166,1593.002-1379.001,1593z"/>
	<path fill="#00FF00" d="M-1427.001,1545c-8.835,0.002-15.999-7.162-15.999-16.002c0-8.836,7.164-16.002,15.996-15.998
		c8.836-0.002,16.004,7.162,16.004,15.998C-1411.002,1537.838-1418.167,1545.002-1427.001,1545z"/>
	<path fill="#00FF00" d="M-1507.001,1545c-8.835,0.002-15.999-7.162-15.999-16.002c0-8.836,7.164-16.002,15.996-15.998
		c8.836-0.002,16.004,7.162,16.004,15.998C-1491.002,1537.838-1498.166,1545.002-1507.001,1545z"/>
	<path fill="#00FF00" d="M-1507.001,1720.999c-8.835,0.002-15.999-7.162-15.999-16.002c0-8.836,7.164-16.002,15.996-15.998
		c8.836-0.002,16.004,7.162,16.004,15.998C-1491.002,1713.837-1498.166,1721.001-1507.001,1720.999z"/>
	<path fill="#00FF00" d="M-1379.001,1720.999c-8.835,0.002-15.999-7.162-15.999-16.002c0-8.836,7.164-16.002,15.996-15.998
		c8.836-0.002,16.004,7.162,16.004,15.998C-1363.002,1713.837-1370.166,1721.001-1379.001,1720.999z"/>
	<line fill="none" stroke="#00FF00" stroke-width="32" x1="-1426.999" y1="1529" x2="-1507" y2="1529"/>
	<line fill="none" stroke="#00FF00" stroke-width="32" x1="-1427" y1="1529" x2="-1427" y2="1577"/>
	<line fill="none" stroke="#00FF00" stroke-width="32" x1="-1379" y1="1577" x2="-1427" y2="1577"/>
	<line fill="none" stroke="#00FF00" stroke-width="32" x1="-1507" y1="1529" x2="-1507" y2="1704.999"/>
	<line fill="none" stroke="#00FF00" stroke-width="32" x1="-1507" y1="1704.999" x2="-1378.921" y2="1704.973"/>
	<line fill="none" stroke="#00FF00" stroke-width="32" x1="-1379" y1="1577" x2="-1427" y2="1529"/>
	<circle fill="#00FF00" cx="-1531" cy="1681" r="56"/>
</g>
<g id="Ebene_8" display="none">
	<g display="inline">
		<line fill="none" stroke="#BF0B29" stroke-width="0.25" x1="-1530.997" y1="1625" x2="-1530.997" y2="1737"/>
		<line fill="none" stroke="#BF0B29" stroke-width="0.25" x1="-1545.491" y1="1626.908" x2="-1516.503" y2="1735.092"/>
		<line fill="none" stroke="#BF0B29" stroke-width="0.25" x1="-1558.998" y1="1632.502" x2="-1502.998" y2="1729.498"/>
		<line fill="none" stroke="#BF0B29" stroke-width="0.25" x1="-1570.596" y1="1641.401" x2="-1491.4" y2="1720.598"/>
		<line fill="none" stroke="#BF0B29" stroke-width="0.25" x1="-1579.497" y1="1653" x2="-1482.5" y2="1709"/>
		<line fill="none" stroke="#BF0B29" stroke-width="0.25" x1="-1585.092" y1="1666.507" x2="-1476.907" y2="1695.494"/>
		<line fill="none" stroke="#BF0B29" stroke-width="0.25" x1="-1587" y1="1681.002" x2="-1475" y2="1681"/>
		<line fill="none" stroke="#BF0B29" stroke-width="0.25" x1="-1585.092" y1="1695.496" x2="-1476.909" y2="1666.507"/>
		<line fill="none" stroke="#BF0B29" stroke-width="0.25" x1="-1579.498" y1="1709.003" x2="-1482.503" y2="1653.002"/>
		<line fill="none" stroke="#BF0B29" stroke-width="0.25" x1="-1570.598" y1="1720.602" x2="-1491.403" y2="1641.404"/>
		<line fill="none" stroke="#BF0B29" stroke-width="0.25" x1="-1559" y1="1729.502" x2="-1503" y2="1632.506"/>
		<line fill="none" stroke="#BF0B29" stroke-width="0.25" x1="-1545.494" y1="1735.098" x2="-1516.506" y2="1626.912"/>
		<ellipse fill="none" stroke="#BF0B29" stroke-width="0.2443" cx="-1530.997" cy="1681" rx="33" ry="32"/>
		<circle fill="none" stroke="#BF0B29" stroke-width="0.1805" cx="-1530.997" cy="1681" r="24"/>
	</g>
</g>
<g id="Ebene_10">
	<polygon fill="#FFFF00" stroke="#FFFF00" stroke-width="16" stroke-linecap="round" stroke-linejoin="round" points="
		-1531,1650.663 -1523.469,1673.839 -1499.101,1673.839 -1518.816,1688.162 -1511.286,1711.338 -1531,1697.015 -1550.713,1711.338 
		-1543.184,1688.162 -1562.898,1673.839 -1538.53,1673.839 	"/>
</g>
</svg>
