<?xml version="1.0" encoding="utf-8"?>
<!-- Generator: Adobe Illustrator 14.0.0, SVG Export Plug-In . SVG Version: 6.00 Build 43363)  -->
<!DOCTYPE svg PUBLIC "-//W3C//DTD SVG 1.1//EN" "http://www.w3.org/Graphics/SVG/1.1/DTD/svg11.dtd">
<svg version="1.1" id="Ebene_1" xmlns="http://www.w3.org/2000/svg" xmlns:xlink="http://www.w3.org/1999/xlink" x="0px" y="0px"
	 width="160px" height="160px" viewBox="0 0 160 160" enable-background="new 0 0 160 160" xml:space="preserve">
<rect y="-0.001" fill="#FF00FF" width="160" height="159.995"/>
<path fill="#00FF00" d="M147.071,132.929L147.071,132.929l-50-50L97.07,82.93c-1.303-1.304-2.969-2.241-4.828-2.667
	C97.138,73.06,100,64.365,100,55c0-24.853-20.146-45-45-45c-24.853,0-45,20.147-45,45c0,24.854,20.147,45,45,45
	c9.365,0,18.059-2.862,25.261-7.758c0.427,1.86,1.363,3.525,2.667,4.829l0,0l50,50c1.81,1.81,4.31,2.929,7.071,2.929
	c5.521,0,10-4.477,10-10C150,137.238,148.881,134.738,147.071,132.929z"/>
<circle fill="#FFFF00" cx="55" cy="54.999" r="35"/>
</svg>
