<?xml version="1.0" encoding="utf-8"?>
<!-- Generator: Adobe Illustrator 14.0.0, SVG Export Plug-In . SVG Version: 6.00 Build 43363)  -->
<!DOCTYPE svg PUBLIC "-//W3C//DTD SVG 1.1//EN" "http://www.w3.org/Graphics/SVG/1.1/DTD/svg11.dtd">
<svg version="1.1" xmlns="http://www.w3.org/2000/svg" xmlns:xlink="http://www.w3.org/1999/xlink" x="0px" y="0px" width="256px"
	 height="256px" viewBox="-1603 1497 256 256" enable-background="new -1603 1497 256 256" xml:space="preserve">
<g id="Hilfslinien">
</g>
<g id="back">
	<rect x="-1603" y="1497" fill="#FF00FF" width="256" height="256"/>
</g>
<g id="front">
	<path fill="#00FF00" d="M-1443.001,1681c-13.252,0.004-23.999-10.744-23.999-24.003c0-13.254,10.747-24.003,23.995-23.997
		c13.254-0.005,24.005,10.743,24.005,23.997C-1419.002,1670.257-1429.749,1681.004-1443.001,1681z"/>
	<path fill="#00FF00" d="M-1387.002,1737c-13.252,0.005-23.998-10.743-23.998-24.002c0-13.255,10.746-24.004,23.994-23.998
		c13.254-0.004,24.006,10.743,24.006,23.998C-1363.003,1726.259-1373.749,1737.005-1387.002,1737z"/>
	<circle fill="#00FF00" cx="-1515" cy="1585" r="72"/>
	<circle fill="#FFFF00" cx="-1515" cy="1585" r="48"/>
	<line fill="none" stroke="#00FF00" stroke-width="48" x1="-1443" y1="1657" x2="-1387" y2="1713"/>
</g>
<g id="Ebene_4" display="none">
	<path display="inline" fill="#FFFF00" d="M-1509.39,1538.906c28.559,0,51.73,23.157,51.73,51.73
		c0,28.56-23.171,51.718-51.73,51.718c-28.572,0-51.731-23.158-51.731-51.718
		C-1561.121,1562.063-1537.962,1538.906-1509.39,1538.906z"/>
	<path display="inline" fill="#00FF00" d="M-1370.431,1693.008l-60.353-60.191c-3.004-2.991-6.561-4.81-10.359-6.021
		c5.766-10.831,9.335-23.023,9.349-36.158c-0.027-42.867-34.757-77.596-77.61-77.637c-42.84,0.041-77.596,34.77-77.596,77.637
		c0,42.826,34.756,77.557,77.596,77.583c13.066-0.026,25.205-3.57,35.996-9.269c1.226,3.826,3.058,7.463,6.076,10.48l60.353,60.164
		c5.065,5.053,11.676,7.571,18.281,7.571c6.627,0,13.242-2.532,18.308-7.597
		C-1360.287,1719.465-1360.327,1703.084-1370.431,1693.008z M-1561.121,1590.637c0.028-28.601,23.159-51.718,51.717-51.73
		c28.573,0.026,51.664,23.144,51.731,51.73c-0.067,28.532-23.158,51.609-51.731,51.69
		C-1537.962,1642.287-1561.093,1619.196-1561.121,1590.637z"/>
</g>
</svg>
