<?xml version="1.0" encoding="utf-8"?>
<!-- Generator: Adobe Illustrator 14.0.0, SVG Export Plug-In . SVG Version: 6.00 Build 43363)  -->
<!DOCTYPE svg PUBLIC "-//W3C//DTD SVG 1.1//EN" "http://www.w3.org/Graphics/SVG/1.1/DTD/svg11.dtd">
<svg version="1.1" xmlns="http://www.w3.org/2000/svg" xmlns:xlink="http://www.w3.org/1999/xlink" x="0px" y="0px" width="256px"
	 height="256px" viewBox="-1603 1497 256 256" enable-background="new -1603 1497 256 256" xml:space="preserve">
<g id="Hilfslinien">
</g>
<g id="back">
	<rect x="-1603" y="1497" fill="#FF00FF" width="256" height="256"/>
</g>
<g id="front">
	<path fill="#00FF00" d="M-1474.999,1737.004c8.832,0.002,15.996-7.162,15.998-16c-0.002-8.834-7.166-15.998-16.002-16
		c-8.832,0-15.998,7.166-16,16C-1491,1729.842-1483.836,1737.006-1474.999,1737.004z"/>
	<g>
		<path fill="#00FF00" d="M-1555.002,1625.004c0.004-8.836-7.16-16-16-16c-8.836,0.002-16.002,7.166-15.998,15.996
			c-0.004,8.836,7.162,16.004,15.998,16.004C-1562.163,1641.002-1554.999,1633.84-1555.002,1625.004z"/>
		<path fill="#00FF00" d="M-1362.999,1625.002c0-8.832-7.166-15.998-16.002-15.998c-8.834,0-15.998,7.164-16,15.998
			c0.002,8.836,7.166,16,16,16.002C-1370.163,1641.002-1362.999,1633.838-1362.999,1625.002z"/>
		<path fill="#00FF00" d="M-1475,1545.002c8.834,0.002,15.998-7.162,15.998-16.002c0-8.836-7.164-16-15.996-15.998
			c-8.836-0.002-16.004,7.162-16.002,16C-1491,1537.84-1483.836,1545.002-1475,1545.002z"/>
		<line fill="none" stroke="#00FF00" stroke-width="32" x1="-1379" y1="1625.004" x2="-1475" y2="1529.004"/>
		<line fill="none" stroke="#00FF00" stroke-width="32" x1="-1475" y1="1529.004" x2="-1571.002" y2="1625.004"/>
	</g>
	<line fill="none" stroke="#00FF00" stroke-width="32" x1="-1475" y1="1721.004" x2="-1475" y2="1529.004"/>
</g>
</svg>
