<?xml version="1.0" encoding="utf-8"?>
<!-- Generator: Adobe Illustrator 14.0.0, SVG Export Plug-In . SVG Version: 6.00 Build 43363)  -->
<!DOCTYPE svg PUBLIC "-//W3C//DTD SVG 1.1//EN" "http://www.w3.org/Graphics/SVG/1.1/DTD/svg11.dtd">
<svg version="1.1" xmlns="http://www.w3.org/2000/svg" xmlns:xlink="http://www.w3.org/1999/xlink" x="0px" y="0px" width="256px"
	 height="256px" viewBox="-1603 1497 256 256" enable-background="new -1603 1497 256 256" xml:space="preserve">
<g id="Hilfslinien">
</g>
<g id="back">
	<rect x="-1603" y="1497" fill="#FF00FF" width="255" height="256"/>
</g>
<g id="front">
	<path fill="#00FF00" d="M-1538.998,1512.998c-8.835-0.002-16.004,7.16-16.004,15.999v192.005l0,0
		c0.002,8.836,7.166,16.001,16.001,16c3.976,0,7.604-1.461,10.403-3.862l0.008,0.009l128.002-96l-0.007-0.008
		c3.421-2.936,5.597-7.281,5.595-12.138c0.002-4.859-2.173-9.206-5.594-12.142l0.008-0.01l-128.003-96.002l-0.007,0.008
		C-1531.394,1514.456-1535.024,1512.996-1538.998,1512.998z"/>
</g>
</svg>
