<?xml version="1.0" encoding="utf-8"?>
<!-- Generator: Adobe Illustrator 14.0.0, SVG Export Plug-In . SVG Version: 6.00 Build 43363)  -->
<!DOCTYPE svg PUBLIC "-//W3C//DTD SVG 1.1//EN" "http://www.w3.org/Graphics/SVG/1.1/DTD/svg11.dtd">
<svg version="1.1" xmlns="http://www.w3.org/2000/svg" xmlns:xlink="http://www.w3.org/1999/xlink" x="0px" y="0px" width="256px"
	 height="256px" viewBox="-1603 1497 256 256" enable-background="new -1603 1497 256 256" xml:space="preserve">
<g id="Hilfslinien">
</g>
<g id="back">
	<rect x="-1603" y="1497" fill="#FF00FF" width="256" height="256"/>
	<circle fill="#FFFF00" cx="-1475" cy="1625" r="112"/>
</g>
<g id="front">
	<path fill="#00FF00" d="M-1536.705,1601.224l-0.015,0.009l48,79.999l0.014-0.009c2.798,4.654,7.881,7.778,13.703,7.776
		c5.824,0.002,10.909-3.121,13.708-7.775l0.014,0.009l48-80l-0.013-0.008c1.447-2.405,2.293-5.211,2.293-8.221
		c0.002-8.835-7.161-16.004-16-16.004h0l0,0h-96c-8.836,0.002-16.001,7.166-16,16.001
		C-1539,1596.012-1538.152,1598.818-1536.705,1601.224z"/>
</g>
</svg>
