<?xml version="1.0" encoding="utf-8"?>
<!-- Generator: Adobe Illustrator 14.0.0, SVG Export Plug-In . SVG Version: 6.00 Build 43363)  -->
<!DOCTYPE svg PUBLIC "-//W3C//DTD SVG 1.1//EN" "http://www.w3.org/Graphics/SVG/1.1/DTD/svg11.dtd">
<svg version="1.1" xmlns="http://www.w3.org/2000/svg" xmlns:xlink="http://www.w3.org/1999/xlink" x="0px" y="0px" width="256px"
	 height="256px" viewBox="-1603 1497 256 256" enable-background="new -1603 1497 256 256" xml:space="preserve">
<g id="Hilfslinien">
</g>
<g id="back">
	<rect x="-1603" y="1497" fill="#FF00FF" width="256" height="256"/>
	<circle fill="#FFFF00" cx="-1475" cy="1625" r="112"/>
</g>
<g id="front">
	<path fill="#00FF00" d="M-1498.776,1686.705l0.009,0.015l79.999-48l-0.009-0.015c4.654-2.798,7.778-7.881,7.776-13.702
		c0.002-5.824-3.121-10.909-7.775-13.708l0.009-0.015l-80-48.001l-0.008,0.014c-2.405-1.447-5.211-2.294-8.221-2.293
		c-8.835-0.002-16.004,7.16-16.004,15.999V1577l0,0v96c0.002,8.836,7.166,16.001,16.001,16
		C-1503.988,1689-1501.182,1688.152-1498.776,1686.705z"/>
</g>
</svg>
