<?xml version="1.0" encoding="utf-8"?>
<!-- Generator: Adobe Illustrator 14.0.0, SVG Export Plug-In . SVG Version: 6.00 Build 43363)  -->
<!DOCTYPE svg PUBLIC "-//W3C//DTD SVG 1.1//EN" "http://www.w3.org/Graphics/SVG/1.1/DTD/svg11.dtd">
<svg version="1.1" xmlns="http://www.w3.org/2000/svg" xmlns:xlink="http://www.w3.org/1999/xlink" x="0px" y="0px" width="256px"
	 height="256px" viewBox="-1603 1497 256 256" enable-background="new -1603 1497 256 256" xml:space="preserve">
<g id="Hilfslinien">
</g>
<g id="back">
	<rect x="-1603" y="1497" fill="#FF00FF" width="256" height="256"/>
</g>
<g id="front">
	<path fill="#00FF00" d="M-1362.998,1577.003c0.002-8.835-7.161-16.004-16-16.004h-192.005l0,0c-8.836,0.002-16,7.166-16,16.001
		c0,3.976,1.46,7.604,3.862,10.403l-0.009,0.008l96,112.002l0.008-0.007c2.935,3.421,7.28,5.597,12.137,5.595
		c4.859,0.002,9.206-2.173,12.142-5.594l0.009,0.008l96.002-112.003l-0.008-0.007
		C-1364.456,1584.606-1362.997,1580.977-1362.998,1577.003z"/>
	<path fill="#00FF00" d="M-1362.998,1528.999c0.002-8.834-7.16-16.004-15.999-16.004h-192.005l0,0
		c-8.836,0.002-16.001,7.166-16,16.002c0,3.975,1.461,7.604,3.862,10.402l-0.009,0.008l96,128.003l0.008-0.007
		c2.936,3.421,7.281,5.597,12.138,5.595c4.859,0.002,9.206-2.173,12.142-5.594l0.01,0.008l96.002-128.003l-0.008-0.008
		C-1364.456,1536.603-1362.996,1532.974-1362.998,1528.999z"/>
</g>
</svg>
