<?xml version="1.0" encoding="utf-8"?>
<!-- Generator: Adobe Illustrator 14.0.0, SVG Export Plug-In . SVG Version: 6.00 Build 43363)  -->
<!DOCTYPE svg PUBLIC "-//W3C//DTD SVG 1.1//EN" "http://www.w3.org/Graphics/SVG/1.1/DTD/svg11.dtd">
<svg version="1.1" xmlns="http://www.w3.org/2000/svg" xmlns:xlink="http://www.w3.org/1999/xlink" x="0px" y="0px" width="256px"
	 height="256px" viewBox="-1603 1497 256 256" enable-background="new -1603 1497 256 256" xml:space="preserve">
<g id="Hilfslinien">
</g>
<g id="back">
	<rect x="-1603" y="1497" fill="#FF00FF" width="256" height="256"/>
	<circle fill="#00FF00" cx="-1475" cy="1625" r="112"/>
	<circle fill="#FFFF00" cx="-1475" cy="1625" r="96"/>
</g>
<g id="front">
	<circle fill="#00FF00" cx="-1474.999" cy="1688.999" r="16"/>
	<path fill="#00FF00" d="M-1474.998,1545.001c8.832,0,15.998,7.164,15.998,16.001c0,8.834-7.165,15.998-16,15.999
		c-8.834,0-16-7.165-16-16C-1490.998,1552.165-1483.835,1545.001-1474.998,1545.001z"/>
	<circle fill="#00FF00" cx="-1411" cy="1624.999" r="16"/>
	<path fill="#00FF00" d="M-1555,1624.998c0-8.832,7.164-15.998,16.001-15.998c8.834,0,15.998,7.165,15.999,16
		c0,8.834-7.165,15.999-16,16C-1547.835,1640.998-1555,1633.835-1555,1624.998z"/>
	<rect x="-1491" y="1561.002" fill="#00FF00" width="32" height="127.997"/>
	<rect x="-1539" y="1609" fill="#00FF00" width="127.999" height="32"/>
</g>
</svg>
